<svg version="1.1" id="Layer_1" xmlns="http://www.w3.org/2000/svg" xmlns:xlink="http://www.w3.org/1999/xlink" x="0px" y="0px"
	 width="100%" viewBox="0 0 128 128" enable-background="new 0 0 128 128" xml:space="preserve">
<path fill="#020101" opacity="1.000000" stroke="none" 
	d="
M129.000000,4.000000 
	C129.000000,45.618397 129.000000,87.236794 129.000000,128.927597 
	C86.431137,128.927597 43.862118,128.927597 1.000000,128.927597 
	C1.000000,87.646233 1.000000,46.291775 1.468655,4.467177 
	C44.291542,3.998027 86.645767,3.999014 129.000000,4.000000 
M22.444199,23.102068 
	C22.178259,23.302153 21.984278,23.557014 21.225124,24.065559 
	C16.880474,30.276243 11.664034,36.062904 8.390004,42.794319 
	C3.124863,53.619476 1.959314,65.233299 6.072845,76.927231 
	C6.072845,76.927231 6.169739,76.860825 6.048806,77.497063 
	C6.380086,78.002457 6.711366,78.507843 6.990379,78.998672 
	C6.990379,78.998672 7.016978,78.951385 6.911538,79.645226 
	C7.359286,80.379448 7.807033,81.113670 8.107150,81.930580 
	C8.107150,81.930580 8.212075,81.797829 8.249475,82.350342 
	C8.530437,82.571983 8.811397,82.793617 9.526958,83.502312 
	C12.947857,85.956917 16.368755,88.411530 20.275703,91.463844 
	C22.595095,92.324829 24.914484,93.185822 26.821461,94.706352 
	C23.853687,101.076332 24.272757,107.796280 28.252190,111.566681 
	C28.627914,111.696236 29.003639,111.825783 29.525879,112.584084 
	C30.962664,113.687347 32.265667,115.059494 33.857342,115.851456 
	C46.951736,122.366699 60.720188,123.580254 75.615776,120.923988 
	C76.051987,120.834724 76.488197,120.745461 77.714027,120.833336 
	C80.457764,120.147202 83.201500,119.461067 86.674133,118.805893 
	C90.138489,117.096680 93.563484,115.301056 97.077286,113.700378 
	C101.357285,111.750656 104.172485,108.643120 105.831963,103.617683 
	C106.157249,102.068832 106.482544,100.519981 107.160889,98.675964 
	C107.037674,98.129608 106.914459,97.583252 106.854317,96.241684 
	C106.644547,95.210358 106.434769,94.179039 106.465752,92.461189 
	C105.631233,90.145073 104.796722,87.828957 104.585747,84.937271 
	C119.992317,77.863625 125.252831,70.723320 123.559837,54.523891 
	C122.786499,47.124226 119.388100,39.355072 115.198639,33.075592 
	C102.027725,13.334064 82.724571,4.712161 59.254929,6.244256 
	C49.709587,6.867375 40.235115,9.126585 31.913280,15.838643 
	C29.494692,17.755627 27.076103,19.672611 24.133234,21.793812 
	C23.711411,22.151634 23.289587,22.509457 22.444199,23.102068 
z"/>
<path fill="#FFFFFF" opacity="1.000000" stroke="none" 
	d="
M129.000000,3.500000 
	C86.645767,3.999014 44.291542,3.998027 1.468655,3.998520 
	C1.000000,3.003745 1.000000,2.007490 1.000000,1.005618 
	C42.506870,1.000000 84.013771,0.985310 125.520462,1.072836 
	C126.732063,1.075391 129.487015,-0.531621 129.000000,3.500000 
z"/>
<path fill="#FCFCFC" opacity="1.000000" stroke="none" 
	d="
M105.322906,104.062996 
	C104.172485,108.643120 101.357285,111.750656 97.077286,113.700378 
	C93.563484,115.301056 90.138489,117.096680 86.056503,118.534134 
	C82.600716,119.060310 79.762566,119.858253 76.924408,120.656197 
	C76.488197,120.745461 76.051987,120.834724 74.988060,120.576591 
	C70.539017,120.177383 66.711578,119.963097 62.897602,120.106621 
	C54.206017,120.433685 46.185802,118.168709 38.489201,114.332390 
	C33.621307,111.906013 33.709492,107.565643 33.982094,103.156036 
	C34.229500,99.153976 37.622826,98.887306 40.416393,98.032852 
	C43.897228,96.968193 47.414444,96.022461 50.958649,95.434418 
	C51.317219,97.564575 51.278786,99.474464 52.062908,100.946091 
	C52.672222,102.089653 54.307377,102.686623 55.486580,103.526535 
	C56.006313,102.306839 56.888187,101.111000 56.970459,99.862473 
	C57.142185,97.256363 56.891609,94.622421 57.166893,91.816513 
	C64.561584,88.831123 71.668488,88.513817 78.900757,91.467148 
	C78.279686,94.395737 77.336861,96.910988 77.100647,99.490929 
	C77.029030,100.273178 78.911057,101.234299 79.898247,102.113487 
	C80.621460,101.206642 81.829445,100.369431 81.971710,99.379128 
	C82.318016,96.968506 82.169846,94.486855 82.674805,92.026871 
	C87.581795,92.017822 92.039818,91.883347 96.486397,92.051506 
	C100.771400,92.213562 103.684921,93.726761 103.190300,98.968811 
	C103.037766,100.585403 104.564873,102.360481 105.322906,104.062996 
z"/>
<path fill="#750808" opacity="1.000000" stroke="none" 
	d="
M32.564686,15.724411 
	C40.235115,9.126585 49.709587,6.867375 59.254929,6.244256 
	C82.724571,4.712161 102.027725,13.334064 115.198639,33.075592 
	C119.388100,39.355072 122.786499,47.124226 123.559837,54.523891 
	C125.252831,70.723320 119.992317,77.863625 104.013351,85.279129 
	C101.772575,85.804153 100.104202,85.987312 97.959412,86.120857 
	C96.528008,86.105637 95.572998,86.140030 94.286469,86.267136 
	C93.276924,86.282722 92.598915,86.205605 92.172745,85.828033 
	C96.409332,84.112946 100.502327,82.930534 104.317589,81.152275 
	C105.579704,80.564026 106.126183,78.440353 107.353439,76.919418 
	C116.644806,74.044678 119.273064,70.088959 119.088272,59.926414 
	C119.240891,58.830528 119.117210,57.914562 118.974731,56.596287 
	C117.976204,52.461601 116.996475,48.729221 115.992432,44.694183 
	C115.434425,43.565434 114.900742,42.739342 114.281708,41.551281 
	C112.768440,38.790005 111.340523,36.390697 109.855362,33.656063 
	C108.512863,31.451754 107.227615,29.582771 105.791061,27.382217 
	C100.419754,23.055771 95.199730,19.060900 89.761749,14.811834 
	C87.693504,13.791471 85.843231,13.025300 83.626137,12.084558 
	C80.509117,11.315686 77.758919,10.721385 74.579926,10.069830 
	C66.102219,10.030654 58.053295,10.048731 49.661705,10.027620 
	C47.825214,10.514170 46.331383,11.039907 44.514526,11.597477 
	C43.447613,12.017957 42.703728,12.406604 41.588234,12.815971 
	C38.811558,13.891350 36.406483,14.946007 33.639217,15.947271 
	C33.039581,15.837390 32.802135,15.780900 32.564686,15.724411 
z"/>
<path fill="#CDCDCD" opacity="1.000000" stroke="none" 
	d="
M50.915955,95.025375 
	C47.414444,96.022461 43.897228,96.968193 40.416393,98.032852 
	C37.622826,98.887306 34.229500,99.153976 33.982094,103.156036 
	C33.709492,107.565643 33.621307,111.906013 38.489201,114.332390 
	C46.185802,118.168709 54.206017,120.433685 62.897602,120.106621 
	C66.711578,119.963097 70.539017,120.177383 74.656525,120.517296 
	C60.720188,123.580254 46.951736,122.366699 33.857342,115.851456 
	C32.265667,115.059494 30.962664,113.687347 29.757710,112.289581 
	C29.811089,110.988754 29.632639,109.982430 29.360233,108.568413 
	C29.305008,106.503960 29.343737,104.847183 29.668964,103.077332 
	C30.214724,102.243515 30.473986,101.522797 30.803680,100.456673 
	C32.367287,98.218506 33.860458,96.325745 35.567547,94.395584 
	C35.781464,94.358200 36.193699,94.221481 36.592831,94.253281 
	C39.016853,93.887634 41.041744,93.490196 43.419674,93.100594 
	C45.239269,92.476669 46.705833,91.844910 48.490639,91.229645 
	C49.836018,91.510017 50.863159,91.773911 51.821320,92.349174 
	C51.473541,93.448822 51.194748,94.237106 50.915955,95.025375 
z"/>
<path fill="#9F9F9F" opacity="1.000000" stroke="none" 
	d="
M51.890297,92.037804 
	C50.863159,91.773911 49.836018,91.510017 48.441460,91.168274 
	C48.074043,91.090424 47.977631,90.972244 47.974277,90.807831 
	C47.970924,90.643417 47.947609,90.314514 48.285965,90.209641 
	C50.453640,89.216301 52.282955,88.327835 54.415764,87.331299 
	C55.142967,87.159477 55.566681,87.095711 56.416969,87.057693 
	C61.565224,86.442802 66.286896,85.802155 71.329605,85.136978 
	C72.075272,85.169487 72.499908,85.226517 73.143021,85.486298 
	C73.941666,85.778000 74.521835,85.866951 75.562782,85.976631 
	C81.322678,86.041069 86.621796,86.084778 91.920906,86.128487 
	C92.598915,86.205605 93.276924,86.282722 94.559418,86.489304 
	C96.254539,86.469330 97.345177,86.319901 98.435822,86.170471 
	C100.104202,85.987312 101.772575,85.804153 103.701584,85.566917 
	C104.796722,87.828957 105.631233,90.145073 106.046555,92.666336 
	C104.564034,91.717468 103.514908,89.584572 102.435066,89.568916 
	C95.614632,89.470009 88.787376,89.840492 81.608932,90.032860 
	C80.453758,90.366020 79.652039,90.722328 78.850311,91.078636 
	C71.668488,88.513817 64.561584,88.831123 56.859192,91.704742 
	C54.647263,89.958588 53.161270,89.226273 51.890297,92.037804 
z"/>
<path fill="#BB7C7C" opacity="1.000000" stroke="none" 
	d="
M19.789654,90.866135 
	C16.368755,88.411530 12.947857,85.956917 9.267860,82.989487 
	C8.743200,82.250381 8.477638,82.024109 8.212075,81.797829 
	C8.212075,81.797829 8.107150,81.930580 8.186315,81.553627 
	C7.849312,80.434914 7.433145,79.693146 7.016978,78.951385 
	C7.016978,78.951385 6.990379,78.998672 7.061929,78.692062 
	C6.812232,77.877243 6.490985,77.369034 6.169739,76.860825 
	C6.169739,76.860825 6.072845,76.927231 6.174026,76.519058 
	C6.130126,73.592155 4.875405,70.606583 9.097485,70.138626 
	C10.515786,71.942986 11.761786,73.443832 12.976074,74.969917 
	C16.368889,79.233910 19.807909,83.424049 25.848972,84.358177 
	C25.169947,88.072960 24.119455,91.100685 19.789654,90.866135 
z"/>
<path fill="#770C0C" opacity="1.000000" stroke="none" 
	d="
M8.910710,69.846626 
	C4.875405,70.606583 6.130126,73.592155 6.232734,76.520729 
	C1.959314,65.233299 3.124863,53.619476 8.390004,42.794319 
	C11.664034,36.062904 16.880474,30.276243 21.768343,24.161659 
	C22.462635,24.386612 22.613708,24.515465 22.661572,24.883373 
	C22.423649,25.436764 22.288935,25.751101 21.854753,26.218632 
	C19.613478,29.073597 17.671669,31.775370 15.445944,34.672714 
	C14.108752,36.912342 13.055476,38.956398 11.738698,41.238029 
	C10.813995,44.897865 7.273592,48.189877 10.976373,52.086487 
	C10.928771,52.545692 10.912478,52.729359 10.489424,52.945927 
	C5.870527,55.409554 8.201193,59.389034 8.342267,62.502090 
	C8.413162,64.066490 11.347042,65.501152 13.178146,67.095871 
	C13.505960,67.575531 13.641834,67.953804 13.493264,68.430817 
	C11.776116,68.968575 10.343413,69.407600 8.910710,69.846626 
z"/>
<path fill="#7B0808" opacity="1.000000" stroke="none" 
	d="
M20.032679,91.164993 
	C24.119455,91.100685 25.169947,88.072960 25.951307,84.132111 
	C26.123390,83.213722 26.334284,82.966316 26.968643,83.001190 
	C28.992453,84.109871 30.624615,85.637398 32.386703,85.805847 
	C38.559399,86.395966 44.776878,86.517616 51.330658,86.889000 
	C51.917122,87.019196 52.150284,87.077560 52.108204,87.377594 
	C49.900578,88.437286 47.968197,89.255295 45.789829,90.131882 
	C45.388313,90.255501 45.232788,90.320534 44.698971,90.314148 
	C41.580261,90.885056 38.839844,91.527397 35.702873,92.117035 
	C32.615509,92.725151 29.924692,93.385979 27.233875,94.046806 
	C24.914484,93.185822 22.595095,92.324829 20.032679,91.164993 
z"/>
<path fill="#DBDBDB" opacity="1.000000" stroke="none" 
	d="
M81.962379,90.056015 
	C88.787376,89.840492 95.614632,89.470009 102.435066,89.568916 
	C103.514908,89.584572 104.564034,91.717468 105.926178,93.009598 
	C106.434769,94.179039 106.644547,95.210358 106.600334,96.764313 
	C106.500175,97.848343 106.654007,98.409737 106.807831,98.971130 
	C106.482544,100.519981 106.157249,102.068832 105.577438,103.840340 
	C104.564873,102.360481 103.037766,100.585403 103.190300,98.968811 
	C103.684921,93.726761 100.771400,92.213562 96.486397,92.051506 
	C92.039818,91.883347 87.581795,92.017822 82.568924,91.708534 
	C81.993515,90.950089 81.977951,90.503052 81.962379,90.056015 
z"/>
<path fill="#4D4C4C" opacity="1.000000" stroke="none" 
	d="
M27.027668,94.376579 
	C29.924692,93.385979 32.615509,92.725151 35.678337,92.458847 
	C36.098125,93.309410 36.145912,93.765442 36.193699,94.221481 
	C36.193699,94.221481 35.781464,94.358200 35.196098,94.280449 
	C30.722063,94.891716 28.444277,97.061600 28.187061,101.334366 
	C28.136539,101.533318 28.146557,101.944618 28.026291,102.310776 
	C27.957773,104.787560 28.009523,106.898170 28.058136,109.361427 
	C27.984579,110.175667 27.914156,110.637268 27.843731,111.098869 
	C24.272757,107.796280 23.853687,101.076332 27.027668,94.376579 
z"/>
<path fill="#770C0C" opacity="1.000000" stroke="none" 
	d="
M32.238983,15.781527 
	C32.802135,15.780900 33.039581,15.837390 33.590668,16.094719 
	C33.904312,16.295559 33.853916,16.601913 33.556107,16.716616 
	C32.103683,17.705986 30.949070,18.580654 29.472931,19.565948 
	C27.863808,20.562677 26.576212,21.448780 25.130054,22.149227 
	C24.971491,21.963570 24.657515,21.589594 24.657515,21.589594 
	C27.076103,19.672611 29.494692,17.755627 32.238983,15.781527 
z"/>
<path fill="#CDCDCD" opacity="1.000000" stroke="none" 
	d="
M77.319214,120.744766 
	C79.762566,119.858253 82.600716,119.060310 85.692055,118.518646 
	C83.201500,119.461067 80.457764,120.147202 77.319214,120.744766 
z"/>
<path fill="#A7A7A7" opacity="1.000000" stroke="none" 
	d="
M28.047962,111.332779 
	C27.914156,110.637268 27.984579,110.175667 28.406429,109.365044 
	C28.989969,109.002716 29.222078,108.989410 29.454189,108.976097 
	C29.632639,109.982430 29.811089,110.988754 29.684452,111.975212 
	C29.003639,111.825783 28.627914,111.696236 28.047962,111.332779 
z"/>
<path fill="#9F9F9F" opacity="1.000000" stroke="none" 
	d="
M106.984360,98.823547 
	C106.654007,98.409737 106.500175,97.848343 106.568802,97.161926 
	C106.914459,97.583252 107.037674,98.129608 106.984360,98.823547 
z"/>
<path fill="#770C0C" opacity="1.000000" stroke="none" 
	d="
M6.964258,79.298309 
	C7.433145,79.693146 7.849312,80.434914 8.260130,81.512283 
	C7.807033,81.113670 7.359286,80.379448 6.964258,79.298309 
z"/>
<path fill="#770C0C" opacity="1.000000" stroke="none" 
	d="
M22.867765,22.867279 
	C23.289587,22.509457 23.711411,22.151634 24.395374,21.691704 
	C24.657515,21.589594 24.971491,21.963570 25.003448,22.396862 
	C24.579088,23.138260 24.122768,23.446367 23.467737,23.531815 
	C23.135269,23.161860 23.001516,23.014568 22.867765,22.867279 
z"/>
<path fill="#770C0C" opacity="1.000000" stroke="none" 
	d="
M6.109272,77.178940 
	C6.490985,77.369034 6.812232,77.877243 7.088062,78.699341 
	C6.711366,78.507843 6.380086,78.002457 6.109272,77.178940 
z"/>
<path fill="#770C0C" opacity="1.000000" stroke="none" 
	d="
M22.086910,24.062206 
	C21.984278,23.557014 22.178259,23.302153 22.655983,22.984673 
	C23.001516,23.014568 23.135269,23.161860 23.354271,23.714481 
	C23.258358,24.350937 23.033447,24.525772 22.764782,24.644318 
	C22.613708,24.515465 22.462635,24.386612 22.086910,24.062206 
z"/>
<path fill="#770C0C" opacity="1.000000" stroke="none" 
	d="
M8.230776,82.074081 
	C8.477638,82.024109 8.743200,82.250381 9.050560,82.745956 
	C8.811397,82.793617 8.530437,82.571983 8.230776,82.074081 
z"/>
<path fill="#202020" opacity="1.000000" stroke="none" 
	d="
M51.821320,92.349174 
	C53.161270,89.226273 54.647263,89.958588 56.506817,91.888145 
	C56.891609,94.622421 57.142185,97.256363 56.970459,99.862473 
	C56.888187,101.111000 56.006313,102.306839 55.486580,103.526535 
	C54.307377,102.686623 52.672222,102.089653 52.062908,100.946091 
	C51.278786,99.474464 51.317219,97.564575 50.958649,95.434418 
	C51.194748,94.237106 51.473541,93.448822 51.821320,92.349174 
z"/>
<path fill="#151515" opacity="1.000000" stroke="none" 
	d="
M81.608932,90.032860 
	C81.977951,90.503052 81.993515,90.950089 82.114960,91.715469 
	C82.169846,94.486855 82.318016,96.968506 81.971710,99.379128 
	C81.829445,100.369431 80.621460,101.206642 79.898247,102.113487 
	C78.911057,101.234299 77.029030,100.273178 77.100647,99.490929 
	C77.336861,96.910988 78.279686,94.395737 78.900757,91.467148 
	C79.652039,90.722328 80.453758,90.366020 81.608932,90.032860 
z"/>
<path fill="#E8C6C6" opacity="1.000000" stroke="none" 
	d="
M89.979713,15.066027 
	C95.199730,19.060900 100.419754,23.055771 105.361771,27.451187 
	C103.721657,28.231871 102.359550,28.612013 100.962234,28.642494 
	C100.015320,25.524837 98.293648,24.759838 95.583046,25.955748 
	C93.776329,26.752865 91.870148,27.324512 89.712708,27.872803 
	C88.612305,27.499069 87.807678,27.249605 87.046227,26.620993 
	C87.393341,24.495798 87.697281,22.749752 88.040298,20.649784 
	C88.712830,18.552582 89.346275,16.809305 89.979713,15.066027 
z"/>
<path fill="#780E0E" opacity="1.000000" stroke="none" 
	d="
M72.924538,85.283554 
	C72.499908,85.226517 72.075272,85.169487 70.908760,85.049774 
	C68.450821,84.930229 66.734772,84.873375 65.116852,84.447601 
	C67.229691,83.740036 69.422752,82.711479 71.229149,83.178513 
	C80.575981,85.595078 89.158363,82.126732 97.887794,80.032631 
	C99.500221,79.645836 100.728645,77.658257 102.486923,76.476486 
	C103.551094,76.548149 104.262657,76.552849 105.301430,76.674492 
	C106.085709,76.867195 106.542778,76.942947 106.999847,77.018707 
	C106.126183,78.440353 105.579704,80.564026 104.317589,81.152275 
	C100.502327,82.930534 96.409332,84.112946 92.172745,85.828033 
	C86.621796,86.084778 81.322678,86.041069 75.367905,85.731606 
	C74.116333,85.405083 73.520439,85.344315 72.924538,85.283554 
z"/>
<path fill="#F2D7D7" opacity="1.000000" stroke="none" 
	d="
M89.761749,14.811834 
	C89.346275,16.809305 88.712830,18.552582 87.657761,20.653931 
	C81.489388,23.008169 75.742645,25.004339 69.789719,26.881046 
	C69.328453,26.554430 69.154900,26.293121 69.056778,25.602961 
	C69.052460,24.478815 69.054222,23.729372 69.161774,22.721889 
	C69.533920,21.970907 69.800278,21.477968 70.479904,20.988724 
	C77.767052,20.899130 82.614655,17.667355 83.992950,12.259129 
	C85.843231,13.025300 87.693504,13.791471 89.761749,14.811834 
z"/>
<path fill="#E9C7C7" opacity="1.000000" stroke="none" 
	d="
M44.837551,11.565645 
	C46.331383,11.039907 47.825214,10.514170 49.673706,10.411630 
	C51.843929,11.886488 53.645222,13.800223 55.477680,13.830545 
	C61.317986,13.927185 67.169876,13.323589 72.978683,13.337433 
	C71.979843,15.472273 71.019600,17.260157 69.759735,18.745247 
	C65.167870,18.294785 60.838844,18.444407 56.593277,17.919283 
	C51.966442,17.347000 46.872589,17.142874 44.837551,11.565645 
z"/>
<path fill="#EBD2D2" opacity="1.000000" stroke="none" 
	d="
M73.017288,12.990479 
	C67.169876,13.323589 61.317986,13.927185 55.477680,13.830545 
	C53.645222,13.800223 51.843929,11.886488 50.016369,10.450817 
	C58.053295,10.048731 66.102219,10.030654 74.539482,10.371765 
	C74.290977,11.484129 73.654129,12.237304 73.017288,12.990479 
z"/>
<path fill="#F3DEDE" opacity="1.000000" stroke="none" 
	d="
M72.978683,13.337434 
	C73.654129,12.237304 74.290977,11.484129 74.968262,10.429018 
	C77.758919,10.721385 80.509117,11.315686 83.626137,12.084558 
	C82.614655,17.667355 77.767052,20.899130 70.461693,20.741470 
	C70.030205,20.490526 70.011169,19.994869 70.022629,19.758131 
	C70.034081,19.521393 70.059357,19.048040 70.059357,19.048040 
	C71.019600,17.260157 71.979843,15.472273 72.978683,13.337434 
z"/>
<path fill="#C08181" opacity="1.000000" stroke="none" 
	d="
M107.353439,76.919418 
	C106.542778,76.942947 106.085709,76.867195 105.362038,76.365387 
	C109.400963,70.624245 113.706482,65.309174 118.211441,60.026123 
	C118.410881,60.058155 118.811981,60.106327 118.811981,60.106327 
	C119.273064,70.088959 116.644806,74.044678 107.353439,76.919418 
z"/>
<path fill="#EED6D6" opacity="1.000000" stroke="none" 
	d="
M33.853916,16.601913 
	C33.853916,16.601913 33.904312,16.295559 33.952862,16.148111 
	C36.406483,14.946007 38.811558,13.891350 41.623520,13.187907 
	C43.016788,15.694570 44.003170,17.850018 44.993095,20.255314 
	C44.996647,20.505165 44.997395,21.005049 44.986565,21.385387 
	C44.302986,22.487883 43.688286,23.759020 42.947460,23.837357 
	C39.705452,24.180164 34.728870,20.058205 33.853916,16.601913 
z"/>
<path fill="#E7BFBF" opacity="1.000000" stroke="none" 
	d="
M44.989548,20.005465 
	C44.003170,17.850018 43.016788,15.694570 41.995125,13.167187 
	C42.703728,12.406604 43.447613,12.017957 44.514526,11.597477 
	C46.872589,17.142874 51.966442,17.347000 56.593277,17.919283 
	C60.838844,18.444407 65.167870,18.294785 69.759735,18.745247 
	C70.059357,19.048040 70.034081,19.521393 69.552979,19.759922 
	C63.594154,19.975182 58.116444,19.940741 52.638691,19.933584 
	C50.089012,19.930252 47.539265,19.979856 44.989548,20.005465 
z"/>
<path fill="#DCAEAE" opacity="1.000000" stroke="none" 
	d="
M100.997444,28.992155 
	C102.359550,28.612013 103.721657,28.231871 105.513062,27.782761 
	C107.227615,29.582771 108.512863,31.451754 109.552940,33.753036 
	C108.529427,35.439320 107.751091,36.693306 106.734833,37.973221 
	C106.496918,37.999146 106.021034,38.050404 105.871063,37.744991 
	C104.154266,36.627121 102.587440,35.814667 101.015923,34.573875 
	C101.008698,32.432312 101.006180,30.719078 101.002258,29.002874 
	C101.000862,28.999903 100.997444,28.992155 100.997444,28.992155 
z"/>
<path fill="#B43E3E" opacity="1.000000" stroke="none" 
	d="
M114.367058,41.913246 
	C114.900742,42.739342 115.434425,43.565434 115.680267,44.853294 
	C114.225563,47.610340 113.058708,49.905621 111.532677,52.156387 
	C109.783401,51.728859 108.393303,51.345833 106.998772,50.591301 
	C106.993698,49.475605 106.993050,48.731419 107.294289,47.840317 
	C108.393875,46.127262 109.191574,44.561131 110.358856,42.958496 
	C111.941299,42.585751 113.154182,42.249500 114.367058,41.913246 
z"/>
<path fill="#A13030" opacity="1.000000" stroke="none" 
	d="
M111.891853,52.200897 
	C113.058708,49.905621 114.225563,47.610340 115.704582,45.155952 
	C116.996475,48.729221 117.976204,52.461601 118.728882,56.739197 
	C118.273270,57.585842 118.044693,57.887268 117.546227,57.995232 
	C115.852821,56.524693 114.429314,55.247608 112.766891,53.833530 
	C112.315941,53.197994 112.103897,52.699448 111.891853,52.200897 
z"/>
<path fill="#B55050" opacity="1.000000" stroke="none" 
	d="
M114.281708,41.551285 
	C113.154182,42.249500 111.941299,42.585751 110.094788,42.770378 
	C108.631691,41.061600 107.802216,39.504444 106.972748,37.947289 
	C107.751091,36.693306 108.529427,35.439320 109.610184,34.088364 
	C111.340523,36.390697 112.768440,38.790005 114.281708,41.551285 
z"/>
<path fill="#780E0E" opacity="1.000000" stroke="none" 
	d="
M117.816116,58.188690 
	C118.044693,57.887268 118.273270,57.585842 118.747681,57.141502 
	C119.117210,57.914562 119.240891,58.830528 119.088272,59.926414 
	C118.811981,60.106327 118.410881,60.058155 118.212151,59.722267 
	C117.947655,58.987148 117.881882,58.587917 117.816116,58.188690 
z"/>
<path fill="#780E0E" opacity="1.000000" stroke="none" 
	d="
M97.959412,86.120850 
	C97.345177,86.319901 96.254539,86.469330 94.890945,86.396599 
	C95.572998,86.140030 96.528008,86.105637 97.959412,86.120850 
z"/>
<path fill="#828282" opacity="1.000000" stroke="none" 
	d="
M28.237581,101.135406 
	C28.444277,97.061600 30.722063,94.891716 34.982182,94.317841 
	C33.860458,96.325745 32.367287,98.218506 30.494701,100.506203 
	C29.489388,100.979225 28.863483,101.057320 28.237581,101.135406 
z"/>
<path fill="#7D7D7D" opacity="1.000000" stroke="none" 
	d="
M36.592831,94.253281 
	C36.145912,93.765442 36.098125,93.309410 36.074883,92.511551 
	C38.839844,91.527397 41.580261,90.885056 44.537590,90.549728 
	C44.191879,91.602081 43.629261,92.347420 43.066643,93.092758 
	C41.041744,93.490196 39.016853,93.887634 36.592831,94.253281 
z"/>
<path fill="#828282" opacity="1.000000" stroke="none" 
	d="
M29.360233,108.568413 
	C29.222078,108.989410 28.989969,109.002716 28.409567,109.012405 
	C28.009523,106.898170 27.957773,104.787560 28.270947,102.471695 
	C28.884737,102.574432 29.133600,102.882423 29.382465,103.190414 
	C29.343737,104.847183 29.305008,106.503960 29.360233,108.568413 
z"/>
<path fill="#9F9F9F" opacity="1.000000" stroke="none" 
	d="
M43.419678,93.100594 
	C43.629261,92.347420 44.191879,91.602081 44.915878,90.621155 
	C45.232788,90.320534 45.388313,90.255501 46.078117,90.213058 
	C46.805508,90.285728 46.998623,90.335815 47.285767,90.524612 
	C47.551147,90.820198 47.750427,90.923172 47.977631,90.972244 
	C47.977631,90.972244 48.074043,91.090424 48.123222,91.151794 
	C46.705833,91.844910 45.239269,92.476669 43.419678,93.100594 
z"/>
<path fill="#A7A7A7" opacity="1.000000" stroke="none" 
	d="
M29.668962,103.077332 
	C29.133600,102.882423 28.884737,102.574432 28.391214,102.105530 
	C28.146557,101.944618 28.136539,101.533318 28.187061,101.334366 
	C28.863483,101.057320 29.489388,100.979225 30.424271,100.851601 
	C30.473986,101.522797 30.214724,102.243515 29.668962,103.077332 
z"/>
<path fill="#7D7D7D" opacity="1.000000" stroke="none" 
	d="
M65.018715,84.816521 
	C66.734772,84.873375 68.450821,84.930229 70.587723,85.074295 
	C66.286896,85.802155 61.565224,86.442802 56.436600,86.810699 
	C56.029648,86.537964 56.022461,86.043091 56.013481,86.028748 
	C56.004505,86.014397 56.023739,86.023979 56.338509,86.046310 
	C57.132404,85.714462 57.611534,85.360275 58.523621,84.999992 
	C60.977291,84.934769 62.998001,84.875648 65.018715,84.816521 
z"/>
<path fill="#7D7D7D" opacity="1.000000" stroke="none" 
	d="
M47.191742,90.385910 
	C46.998623,90.335815 46.805508,90.285728 46.324104,90.154480 
	C47.968197,89.255295 49.900578,88.437286 52.225029,87.379883 
	C52.617096,87.140495 52.826927,87.027000 53.155052,87.108932 
	C53.692871,87.273689 53.902569,87.356529 54.112270,87.439362 
	C52.282955,88.327835 50.453640,89.216301 48.092758,90.182770 
	C47.561195,90.260773 47.191742,90.385910 47.191742,90.385910 
z"/>
<path fill="#7B0808" opacity="1.000000" stroke="none" 
	d="
M54.415764,87.331299 
	C53.902569,87.356529 53.692871,87.273689 53.389545,86.838028 
	C54.204762,86.337837 55.113613,86.190460 56.022461,86.043091 
	C56.022461,86.043091 56.029648,86.537964 56.010021,86.784958 
	C55.566681,87.095711 55.142967,87.159477 54.415764,87.331299 
z"/>
<path fill="#7D7D7D" opacity="1.000000" stroke="none" 
	d="
M73.143021,85.486298 
	C73.520439,85.344315 74.116333,85.405083 74.907120,85.710876 
	C74.521835,85.866951 73.941666,85.778000 73.143021,85.486298 
z"/>
<path fill="#A7A7A7" opacity="1.000000" stroke="none" 
	d="
M47.285767,90.524612 
	C47.191742,90.385910 47.561195,90.260773 47.754402,90.287643 
	C47.947609,90.314514 47.970924,90.643417 47.974277,90.807831 
	C47.750427,90.923172 47.551147,90.820198 47.285767,90.524612 
z"/>
<path fill="#CC8484" opacity="1.000000" stroke="none" 
	d="
M26.636572,82.796829 
	C26.334284,82.966316 26.123390,83.213722 25.901556,83.765106 
	C19.807909,83.424049 16.368889,79.233910 12.976074,74.969917 
	C11.761786,73.443832 10.515786,71.942986 9.097485,70.138626 
	C10.343413,69.407600 11.776116,68.968575 13.894433,68.601791 
	C15.720215,68.774986 16.860384,68.875946 18.283543,69.163193 
	C20.991905,71.635559 23.417276,73.921638 25.871487,76.495918 
	C26.184202,77.491684 26.468077,78.199249 26.736446,79.296906 
	C26.692818,80.723602 26.664696,81.760216 26.636572,82.796829 
z"/>
<path fill="#E0B7B7" opacity="1.000000" stroke="none" 
	d="
M15.729860,34.477142 
	C17.671669,31.775370 19.613478,29.073597 22.108074,26.413944 
	C25.104984,28.305475 27.549109,30.154886 29.993292,32.253197 
	C29.993353,32.502090 29.991940,32.999985 29.685932,33.157742 
	C28.919500,34.544910 28.459074,35.774323 27.677250,37.028656 
	C26.567631,37.703571 25.779411,38.353565 24.625652,38.963654 
	C21.416697,37.441547 18.573278,35.959343 15.729860,34.477142 
z"/>
<path fill="#E6C6C6" opacity="1.000000" stroke="none" 
	d="
M29.993231,32.004299 
	C27.549109,30.154886 25.104984,28.305475 22.407539,26.260750 
	C22.288935,25.751101 22.423649,25.436764 22.661572,24.883373 
	C23.033447,24.525772 23.258358,24.350937 23.552982,23.937143 
	C24.122768,23.446367 24.579088,23.138260 25.162012,22.582520 
	C26.576212,21.448780 27.863808,20.562677 29.543320,19.947536 
	C31.291021,22.478540 32.646809,24.738583 34.001541,27.332359 
	C34.000648,28.111052 34.000801,28.556007 33.704689,29.128387 
	C32.270023,30.171972 31.131626,31.088135 29.993231,32.004299 
z"/>
<path fill="#DEAEAE" opacity="1.000000" stroke="none" 
	d="
M15.445944,34.672714 
	C18.573278,35.959343 21.416697,37.441547 24.628155,39.338356 
	C24.996574,40.502590 24.996952,41.252216 24.676029,42.027321 
	C23.568727,42.703434 22.782724,43.354057 21.590322,44.003151 
	C19.119167,44.338970 17.054409,44.676323 14.694639,44.864079 
	C13.600485,43.476471 12.801342,42.238461 12.002201,41.000450 
	C13.055476,38.956398 14.108752,36.912342 15.445944,34.672714 
z"/>
<path fill="#9C2525" opacity="1.000000" stroke="none" 
	d="
M12.986210,66.994492 
	C11.347042,65.501152 8.413162,64.066490 8.342267,62.502090 
	C8.201193,59.389034 5.870527,55.409554 10.553766,53.298874 
	C11.353360,54.744953 11.681848,55.870991 12.006758,57.420547 
	C12.330857,60.894211 12.658533,63.944351 12.986210,66.994492 
z"/>
<path fill="#CC9494" opacity="1.000000" stroke="none" 
	d="
M11.738697,41.238029 
	C12.801342,42.238461 13.600485,43.476471 14.692966,45.292767 
	C14.987228,47.591961 14.988153,49.312866 14.628127,51.040306 
	C13.180679,51.301540 12.094181,51.556244 11.007683,51.810947 
	C7.273592,48.189877 10.813995,44.897865 11.738697,41.238029 
z"/>
<path fill="#AC2626" opacity="1.000000" stroke="none" 
	d="
M13.178146,67.095871 
	C12.658533,63.944351 12.330857,60.894211 12.338709,57.419720 
	C13.117114,56.998592 13.559990,57.001816 14.037659,57.359615 
	C15.379514,60.141861 16.686577,62.569527 17.995378,65.395386 
	C17.998260,66.854691 17.999407,67.915794 18.000551,68.976906 
	C16.860384,68.875946 15.720215,68.774986 14.178879,68.503052 
	C13.641834,67.953804 13.505960,67.575531 13.178146,67.095871 
z"/>
<path fill="#B73A3A" opacity="1.000000" stroke="none" 
	d="
M14.002867,57.005035 
	C13.559990,57.001816 13.117114,56.998592 12.342286,56.996197 
	C11.681848,55.870991 11.353360,54.744953 10.960529,53.265968 
	C10.912478,52.729359 10.928771,52.545692 10.976373,52.086487 
	C12.094181,51.556244 13.180679,51.301540 14.917662,51.196869 
	C16.380930,51.659161 17.193716,51.971413 18.005087,52.631760 
	C17.668913,54.320793 17.334152,55.661728 16.624786,57.001457 
	C15.501077,57.001846 14.751971,57.003441 14.002867,57.005035 
z"/>
<path fill="#991515" opacity="1.000000" stroke="none" 
	d="
M56.013481,86.028748 
	C55.113613,86.190460 54.204762,86.337837 53.061420,86.756104 
	C52.826927,87.027000 52.617096,87.140495 52.500275,87.138206 
	C52.150284,87.077560 51.917122,87.019196 51.273590,86.571648 
	C49.242496,85.122780 47.621777,84.063103 46.291885,82.709007 
	C52.332222,81.942978 58.106663,81.670731 63.825680,80.955360 
	C73.614586,79.730896 83.385414,78.330627 93.120071,76.736839 
	C94.621384,76.491043 95.889572,74.821388 97.571304,73.888840 
	C99.296135,74.781479 100.715218,75.595497 102.134308,76.409515 
	C100.728645,77.658257 99.500221,79.645836 97.887794,80.032631 
	C89.158363,82.126732 80.575981,85.595078 71.229149,83.178513 
	C69.422752,82.711479 67.229691,83.740036 65.116852,84.447601 
	C62.998001,84.875648 60.977291,84.934769 58.212109,85.012344 
	C56.986340,85.361847 56.505039,85.692909 56.023735,86.023979 
	C56.023739,86.023979 56.004505,86.014397 56.013481,86.028748 
z"/>
<path fill="#9A0E0E" opacity="1.000000" stroke="none" 
	d="
M46.001053,83.003426 
	C47.621777,84.063103 49.242496,85.122780 50.920288,86.499809 
	C44.776878,86.517616 38.559399,86.395966 32.386703,85.805847 
	C30.624615,85.637398 28.992453,84.109871 26.968643,83.001190 
	C26.664696,81.760216 26.692818,80.723602 27.104465,79.445221 
	C33.659012,80.470108 39.830032,81.736771 46.001053,83.003426 
z"/>
<path fill="#EED0D0" opacity="1.000000" stroke="none" 
	d="
M34.002594,26.998627 
	C32.646809,24.738583 31.291021,22.478540 29.864845,19.836910 
	C30.949070,18.580654 32.103683,17.705986 33.556107,16.716616 
	C34.728870,20.058205 39.705452,24.180164 42.947460,23.837357 
	C43.688286,23.759020 44.302986,22.487883 45.225571,21.389879 
	C45.475410,21.014032 45.953449,21.013851 45.965393,21.413731 
	C45.999901,22.880318 46.022461,23.947027 46.029831,25.388454 
	C45.990780,26.513153 45.966919,27.263132 45.525829,28.006887 
	C41.406601,27.666651 37.704597,27.332640 34.002594,26.998627 
z"/>
<path fill="#F6D0D0" opacity="1.000000" stroke="none" 
	d="
M69.995903,27.000507 
	C75.742645,25.004339 81.489388,23.008169 87.618668,21.007854 
	C87.697281,22.749752 87.393341,24.495798 86.715622,26.764454 
	C81.515495,29.213770 76.689148,31.140480 71.635460,32.942940 
	C70.980225,32.521626 70.552330,32.224556 70.078430,31.615372 
	C69.715073,30.526188 69.397713,29.749119 69.185120,28.721024 
	C69.525223,27.980167 69.760567,27.490337 69.995903,27.000507 
z"/>
<path fill="#F7C7C7" opacity="1.000000" stroke="none" 
	d="
M71.862793,33.067188 
	C76.689148,31.140480 81.515495,29.213770 86.672455,27.143600 
	C87.807678,27.249605 88.612305,27.499069 89.709892,28.273232 
	C90.001091,29.865425 89.999329,30.932922 89.676804,32.142185 
	C84.859337,34.603138 80.362648,36.922329 75.582214,39.184639 
	C74.920021,39.054600 74.541580,38.981441 74.087173,38.594414 
	C73.309013,37.195053 72.606827,36.109562 71.913498,34.697388 
	C71.902504,33.936199 71.882645,33.501694 71.862793,33.067188 
z"/>
<path fill="#E9C2C2" opacity="1.000000" stroke="none" 
	d="
M89.997559,32.000420 
	C89.999329,30.932922 90.001091,29.865425 90.005661,28.397499 
	C91.870148,27.324512 93.776329,26.752865 95.583046,25.955748 
	C98.293648,24.759838 100.015320,25.524837 100.962234,28.642494 
	C100.997444,28.992155 101.000862,28.999903 100.634964,29.040009 
	C97.513901,30.054121 94.758728,31.028128 91.669205,32.001385 
	C90.889076,32.000565 90.443321,32.000492 89.997559,32.000420 
z"/>
<path fill="#D18D8D" opacity="1.000000" stroke="none" 
	d="
M102.486923,76.476486 
	C100.715218,75.595497 99.296135,74.781479 97.560150,73.903412 
	C97.243263,73.839371 97.234268,73.807182 97.263481,73.591049 
	C97.292694,73.374924 97.405457,72.953552 97.726486,72.904617 
	C100.529846,70.988304 103.604988,69.555191 105.362068,67.156548 
	C108.347206,63.081490 110.502029,58.398201 113.005798,53.970524 
	C114.429314,55.247608 115.852821,56.524693 117.546227,57.995232 
	C117.881882,58.587917 117.947655,58.987148 118.012711,59.690235 
	C113.706482,65.309174 109.400963,70.624245 105.034828,76.248428 
	C104.262657,76.552849 103.551094,76.548149 102.486923,76.476486 
z"/>
<path fill="#EEB1B1" opacity="1.000000" stroke="none" 
	d="
M46.045025,25.013737 
	C46.022461,23.947027 45.999901,22.880318 46.371742,21.416071 
	C54.196095,21.672333 61.626041,22.326130 69.055984,22.979927 
	C69.054222,23.729372 69.052460,24.478815 68.621208,25.610870 
	C63.378899,25.993273 58.562668,26.101072 53.754631,25.949322 
	C51.177486,25.867981 48.614437,25.340105 46.045025,25.013737 
z"/>
<path fill="#EDBABA" opacity="1.000000" stroke="none" 
	d="
M69.161774,22.721888 
	C61.626041,22.326130 54.196095,21.672333 46.359802,21.016193 
	C45.953449,21.013851 45.475410,21.014032 45.236404,21.009541 
	C44.997395,21.005049 44.996647,20.505165 44.993095,20.255314 
	C47.539265,19.979856 50.089012,19.930252 52.638691,19.933584 
	C58.116444,19.940741 63.594154,19.975182 69.541527,19.996662 
	C70.011169,19.994869 70.030205,20.490526 70.048416,20.737778 
	C69.800278,21.477968 69.533920,21.970907 69.161774,22.721888 
z"/>
<path fill="#F0A9A9" opacity="1.000000" stroke="none" 
	d="
M46.029831,25.388454 
	C48.614437,25.340105 51.177486,25.867981 53.754631,25.949322 
	C58.562668,26.101072 63.378899,25.993273 68.627289,25.985573 
	C69.154900,26.293121 69.328453,26.554430 69.789719,26.881046 
	C69.760567,27.490337 69.525223,27.980167 68.708229,28.731047 
	C60.776005,28.657389 53.425442,28.322681 46.041924,27.994278 
	C46.008972,28.000582 45.943054,28.013113 45.943054,28.013113 
	C45.966919,27.263132 45.990780,26.513153 46.029831,25.388454 
z"/>
<path fill="#EDBBBB" opacity="1.000000" stroke="none" 
	d="
M92.003563,32.002136 
	C94.758728,31.028128 97.513901,30.054121 100.636368,29.042980 
	C101.006180,30.719078 101.008698,32.432312 100.766533,34.739681 
	C100.348457,35.892139 100.175079,36.450462 99.656052,37.038010 
	C98.206924,37.379433 97.103424,37.691624 95.583252,38.002613 
	C93.777611,38.000687 92.388657,37.999966 91.000336,37.611843 
	C91.335167,35.483673 91.669365,33.742905 92.003563,32.002136 
z"/>
<path fill="#C85050" opacity="1.000000" stroke="none" 
	d="
M106.734833,37.973217 
	C107.802216,39.504444 108.631691,41.061600 109.725220,42.806877 
	C109.191574,44.561131 108.393875,46.127262 107.032013,47.632759 
	C105.317886,45.716763 104.167938,43.861408 103.148842,41.721565 
	C104.193481,40.308189 105.107262,39.179298 106.021034,38.050404 
	C106.021034,38.050404 106.496918,37.999146 106.734833,37.973217 
z"/>
<path fill="#E6ABAB" opacity="1.000000" stroke="none" 
	d="
M105.871063,37.744991 
	C105.107262,39.179298 104.193481,40.308189 102.893265,41.720940 
	C102.336540,42.002342 102.166245,41.999878 101.860809,41.687279 
	C101.151016,39.921024 100.576355,38.464901 100.001694,37.008781 
	C100.175079,36.450462 100.348457,35.892139 100.771233,35.168015 
	C102.587440,35.814667 104.154266,36.627121 105.871063,37.744991 
z"/>
<path fill="#DE9292" opacity="1.000000" stroke="none" 
	d="
M112.766891,53.833530 
	C110.502029,58.398201 108.347206,63.081490 105.362068,67.156548 
	C103.604988,69.555191 100.529846,70.988304 97.421265,72.753983 
	C95.871574,71.433365 94.948151,70.214455 94.029877,68.662453 
	C94.027481,67.885880 94.019936,67.442406 94.400520,66.998703 
	C101.953484,65.965675 106.879799,59.658573 107.042412,51.217342 
	C107.036980,51.131496 107.003204,50.962811 107.003204,50.962811 
	C108.393303,51.345833 109.783401,51.728859 111.532677,52.156391 
	C112.103897,52.699448 112.315941,53.197994 112.766891,53.833530 
z"/>
<path fill="#D64D4D" opacity="1.000000" stroke="none" 
	d="
M101.995941,41.997417 
	C102.166245,41.999878 102.336540,42.002342 102.762405,42.005424 
	C104.167938,43.861408 105.317886,45.716763 106.730118,47.779678 
	C106.993050,48.731419 106.993698,49.475605 106.998772,50.591301 
	C107.003204,50.962811 107.036980,51.131496 106.652328,51.142616 
	C104.198265,51.506668 102.128860,51.859596 100.072510,51.821152 
	C100.052315,48.943123 100.019066,46.456467 100.124916,43.721676 
	C100.841324,42.981503 101.418633,42.489460 101.995941,41.997417 
z"/>
<path fill="#7B0808" opacity="1.000000" stroke="none" 
	d="
M56.338509,86.046310 
	C56.505039,85.692909 56.986340,85.361847 57.779152,85.018433 
	C57.611534,85.360275 57.132404,85.714462 56.338509,86.046310 
z"/>
<path fill="#AF1818" opacity="1.000000" stroke="none" 
	d="
M46.291885,82.709007 
	C39.830032,81.736771 33.659012,80.470108 27.119970,79.055138 
	C26.468077,78.199249 26.184202,77.491684 26.098181,76.199341 
	C26.906649,75.476494 27.682005,75.025139 28.103474,75.246765 
	C35.978115,79.387711 44.481487,79.214630 53.395805,78.998535 
	C55.195137,78.314522 56.596600,77.628914 58.423916,76.914864 
	C60.555443,76.856964 62.261108,76.827507 64.129539,77.151230 
	C66.089722,77.878349 67.970772,78.796669 69.670631,78.535538 
	C78.883224,77.120323 88.051033,75.413528 97.234268,73.807182 
	C97.234268,73.807182 97.243263,73.839371 97.254417,73.824799 
	C95.889572,74.821388 94.621384,76.491043 93.120071,76.736839 
	C83.385414,78.330627 73.614586,79.730896 63.825680,80.955360 
	C58.106663,81.670731 52.332222,81.942978 46.291885,82.709007 
z"/>
<path fill="#C02020" opacity="1.000000" stroke="none" 
	d="
M52.997932,78.996948 
	C44.481487,79.214630 35.978115,79.387711 28.103474,75.246765 
	C27.682005,75.025139 26.906649,75.476494 26.069340,75.911148 
	C23.417276,73.921638 20.991905,71.635559 18.283543,69.163193 
	C17.999407,67.915794 17.998260,66.854691 18.290865,65.271751 
	C19.387413,64.498825 20.190210,64.247726 20.996473,63.998383 
	C20.999937,64.000137 20.999071,64.005775 21.033985,64.350929 
	C26.928942,74.683693 41.632858,78.277412 52.478310,74.905548 
	C53.180107,74.970398 53.580009,75.017296 53.996696,75.263870 
	C54.013477,75.463539 54.072174,75.859978 53.939491,76.169540 
	C53.537186,77.318390 53.267559,78.157669 52.997932,78.996948 
z"/>
<path fill="#F3BBBB" opacity="1.000000" stroke="none" 
	d="
M27.998650,37.003738 
	C28.459074,35.774323 28.919500,34.544910 30.006887,33.297768 
	C34.745834,35.184853 38.857819,37.089664 42.988358,39.247841 
	C43.014156,39.670425 43.021397,39.839638 42.774025,40.177917 
	C42.010139,41.230202 41.500874,42.113407 40.743919,43.107216 
	C40.033115,43.494774 39.570011,43.771725 38.747654,44.002045 
	C34.925152,41.638187 31.461901,39.320965 27.998650,37.003738 
z"/>
<path fill="#F2B3B3" opacity="1.000000" stroke="none" 
	d="
M27.677250,37.028656 
	C31.461901,39.320965 34.925152,41.638187 38.628639,44.257668 
	C38.568985,45.035728 38.269096,45.511536 37.700005,46.086437 
	C36.943527,46.760944 36.456249,47.336361 35.639915,47.970047 
	C34.277664,48.393349 33.244473,48.758381 31.922302,48.938362 
	C29.421326,46.502819 27.209328,44.252327 24.997330,42.001839 
	C24.996952,41.252216 24.996574,40.502590 24.993694,39.378265 
	C25.779411,38.353565 26.567631,37.703571 27.677250,37.028656 
z"/>
<path fill="#F2C4C4" opacity="1.000000" stroke="none" 
	d="
M42.969807,38.994473 
	C38.857819,37.089664 34.745834,35.184853 30.312893,33.140015 
	C29.991940,32.999985 29.993353,32.502090 29.993292,32.253197 
	C31.131626,31.088135 32.270023,30.171972 34.022079,29.267662 
	C38.073345,30.857206 41.510948,32.434895 45.012108,34.001671 
	C45.075668,33.990765 45.204376,33.982357 45.106430,34.322910 
	C44.670567,35.774818 44.332649,36.886173 43.784294,38.118690 
	C43.320427,38.449703 43.119080,38.701244 42.969807,38.994473 
z"/>
<path fill="#F3CBCB" opacity="1.000000" stroke="none" 
	d="
M44.948551,34.012581 
	C41.510948,32.434895 38.073345,30.857206 34.318352,29.140242 
	C34.000801,28.556007 34.000648,28.111052 34.001541,27.332359 
	C37.704597,27.332640 41.406601,27.666651 45.525829,28.006887 
	C45.943054,28.013113 46.008972,28.000582 46.017078,28.367527 
	C45.999783,29.480581 45.974377,30.226690 45.691143,31.185057 
	C45.271725,32.269070 45.110138,33.140827 44.948551,34.012581 
z"/>
<path fill="#EEAAAA" opacity="1.000000" stroke="none" 
	d="
M24.676029,42.027321 
	C27.209328,44.252327 29.421326,46.502819 31.732056,49.164276 
	C31.215197,50.037857 30.599606,50.500465 29.697853,50.976814 
	C28.926722,51.252262 28.441753,51.513969 27.623188,51.796967 
	C26.857347,51.923023 26.425106,52.027794 25.621136,52.083897 
	C24.501795,51.997738 23.754181,51.960247 23.003551,51.519989 
	C22.665930,48.746376 22.331324,46.375526 21.996719,44.004681 
	C22.782724,43.354057 23.568727,42.703434 24.676029,42.027321 
z"/>
<path fill="#E3A5A5" opacity="1.000000" stroke="none" 
	d="
M21.590321,44.003151 
	C22.331324,46.375526 22.665930,48.746376 22.625074,51.582993 
	C21.490549,52.141567 20.731487,52.234371 19.648293,52.254498 
	C18.884941,52.215771 18.445721,52.249722 18.006500,52.283669 
	C17.193716,51.971413 16.380930,51.659161 15.278611,51.190338 
	C14.988153,49.312866 14.987228,47.591961 14.987978,45.442364 
	C17.054409,44.676323 19.119167,44.338970 21.590321,44.003151 
z"/>
<path fill="#B92C2C" opacity="1.000000" stroke="none" 
	d="
M20.993010,63.996628 
	C20.190210,64.247726 19.387413,64.498825 18.289127,64.873558 
	C16.686577,62.569527 15.379514,60.141861 14.037659,57.359615 
	C14.751971,57.003441 15.501077,57.001846 16.660143,57.344757 
	C18.377741,59.791714 19.685375,61.894173 20.993010,63.996628 
z"/>
<path fill="#C93333" opacity="1.000000" stroke="none" 
	d="
M20.996473,63.998383 
	C19.685375,61.894173 18.377741,59.791714 17.034748,57.345963 
	C17.334152,55.661728 17.668913,54.320793 18.005087,52.631763 
	C18.445721,52.249722 18.884941,52.215771 19.663101,52.599384 
	C21.334887,55.676662 22.667732,58.336376 24.000349,61.371773 
	C24.000254,62.498745 24.000387,63.250034 23.625347,64.000870 
	C22.499805,64.002205 21.749437,64.003990 20.999071,64.005775 
	C20.999071,64.005775 20.999937,64.000137 20.996473,63.998383 
z"/>
<path fill="#F59898" opacity="1.000000" stroke="none" 
	d="
M45.012108,34.001671 
	C45.110138,33.140827 45.271725,32.269070 46.125435,31.196260 
	C54.586521,31.305964 62.355476,31.616724 70.124435,31.927483 
	C70.552330,32.224556 70.980225,32.521626 71.635452,32.942940 
	C71.882645,33.501694 71.902504,33.936199 71.489594,34.690262 
	C62.352505,36.852406 53.757950,35.932972 45.204376,33.982357 
	C45.204376,33.982357 45.075668,33.990765 45.012108,34.001671 
z"/>
<path fill="#F3A1A1" opacity="1.000000" stroke="none" 
	d="
M70.078430,31.615370 
	C62.355476,31.616724 54.586521,31.305964 46.383270,30.984001 
	C45.974377,30.226690 45.999783,29.480581 46.050030,28.361225 
	C53.425442,28.322681 60.776005,28.657389 68.603470,28.982073 
	C69.397713,29.749119 69.715073,30.526188 70.078430,31.615370 
z"/>
<path fill="#FB8181" opacity="1.000000" stroke="none" 
	d="
M42.988358,39.247841 
	C43.119080,38.701244 43.320427,38.449703 44.205647,38.119820 
	C54.550526,40.308788 64.318588,40.843132 74.163139,38.908283 
	C74.541580,38.981441 74.920021,39.054600 75.642929,39.473515 
	C76.374191,40.517822 76.760994,41.216373 76.758499,41.981014 
	C73.892212,43.398121 71.415199,44.749138 68.560143,46.024315 
	C63.816151,45.360847 59.450214,44.773216 54.909508,43.841064 
	C50.832706,42.333981 46.930676,41.171413 43.028641,40.008846 
	C43.021397,39.839638 43.014156,39.670425 42.988358,39.247841 
z"/>
<path fill="#F88C8C" opacity="1.000000" stroke="none" 
	d="
M74.087173,38.594414 
	C64.318588,40.843132 54.550526,40.308788 44.416084,37.998661 
	C44.332649,36.886173 44.670567,35.774818 45.106430,34.322910 
	C53.757950,35.932972 62.352505,36.852406 71.480728,35.016945 
	C72.606827,36.109562 73.309013,37.195053 74.087173,38.594414 
z"/>
<path fill="#F9BEBE" opacity="1.000000" stroke="none" 
	d="
M77.147789,41.914921 
	C76.760994,41.216373 76.374191,40.517822 75.926682,39.530396 
	C80.362648,36.922329 84.859337,34.603138 89.676796,32.142185 
	C90.443321,32.000492 90.889076,32.000565 91.669205,32.001385 
	C91.669365,33.742905 91.335167,35.483673 90.681381,37.752628 
	C87.578308,40.169113 84.794807,42.057411 81.662674,43.958900 
	C79.925293,43.286366 78.536537,42.600643 77.147789,41.914921 
z"/>
<path fill="#B92121" opacity="1.000000" stroke="none" 
	d="
M97.263481,73.591049 
	C88.051033,75.413528 78.883224,77.120323 69.670631,78.535538 
	C67.970772,78.796669 66.089722,77.878349 64.374207,76.932327 
	C66.367249,75.284019 68.278381,74.207794 70.429077,73.115677 
	C70.668648,73.099792 71.146652,73.054131 71.580765,73.045166 
	C79.351486,71.689308 86.688110,70.342422 94.024727,68.995544 
	C94.948151,70.214455 95.871574,71.433365 97.100227,72.802917 
	C97.405457,72.953552 97.292694,73.374924 97.263481,73.591049 
z"/>
<path fill="#F8B6B6" opacity="1.000000" stroke="none" 
	d="
M82.011314,43.945709 
	C84.794807,42.057411 87.578308,40.169113 90.680748,38.140030 
	C92.388657,37.999966 93.777611,38.000687 95.548630,38.347771 
	C94.613899,41.063465 93.297119,43.432800 91.587372,45.871475 
	C90.133629,46.008747 89.072853,46.076675 87.640900,46.063110 
	C85.564545,45.610256 83.859383,45.238899 82.122467,44.636467 
	C82.090721,44.405392 82.011314,43.945709 82.011314,43.945709 
z"/>
<path fill="#F1AEAE" opacity="1.000000" stroke="none" 
	d="
M91.980339,45.802132 
	C93.297119,43.432800 94.613899,41.063465 95.965309,38.348976 
	C97.103424,37.691624 98.206924,37.379433 99.656052,37.038010 
	C100.576355,38.464901 101.151016,39.921024 101.860809,41.687279 
	C101.418633,42.489460 100.841324,42.981503 99.787971,43.756195 
	C97.868141,44.665462 96.424347,45.292068 94.605049,45.906372 
	C93.479813,45.863426 92.730072,45.832779 91.980339,45.802132 
z"/>
<path fill="#E99797" opacity="1.000000" stroke="none" 
	d="
M100.059456,52.212524 
	C102.128860,51.859596 104.198265,51.506668 106.657761,51.228462 
	C106.879799,59.658573 101.953484,65.965675 94.231247,66.672272 
	C93.458450,64.897240 93.243050,63.448414 93.052513,61.643658 
	C93.431389,60.179474 93.785385,59.071224 94.368317,57.731293 
	C95.238869,56.368351 95.880486,55.237091 96.828369,54.119911 
	C98.109581,53.493500 99.084518,52.853012 100.059456,52.212524 
z"/>
<path fill="#D73333" opacity="1.000000" stroke="none" 
	d="
M93.027641,61.999588 
	C93.243050,63.448414 93.458450,64.897240 93.843124,66.672493 
	C94.019936,67.442406 94.027481,67.885880 94.029877,68.662453 
	C86.688110,70.342422 79.351486,71.689308 71.610428,72.706467 
	C72.595139,70.317413 73.984283,68.258095 75.552994,66.162529 
	C75.732567,66.126282 76.090256,66.029701 76.531601,66.022278 
	C82.885750,66.920486 87.912117,64.281799 93.027641,61.999588 
z"/>
<path fill="#E74F4F" opacity="1.000000" stroke="none" 
	d="
M100.072510,51.821152 
	C99.084518,52.853012 98.109581,53.493500 96.405365,54.093597 
	C95.116440,54.033943 94.556778,54.014683 93.997978,53.579556 
	C93.998611,51.777126 93.998390,50.390560 94.127121,48.702789 
	C94.497574,47.573948 94.739067,46.746307 94.980553,45.918671 
	C96.424347,45.292068 97.868141,44.665462 99.648872,44.004333 
	C100.019066,46.456467 100.052315,48.943123 100.072510,51.821152 
z"/>
<path fill="#E48F8F" opacity="1.000000" stroke="none" 
	d="
M70.189514,73.131569 
	C68.278381,74.207794 66.367249,75.284019 64.211449,76.579147 
	C62.261108,76.827507 60.555443,76.856964 58.118050,76.760376 
	C56.281609,76.376213 55.176891,76.118095 54.072174,75.859978 
	C54.072174,75.859978 54.013477,75.463539 54.052319,74.866547 
	C59.184891,70.036949 64.713387,71.954636 70.189514,73.131569 
z"/>
<path fill="#B92121" opacity="1.000000" stroke="none" 
	d="
M53.939491,76.169540 
	C55.176891,76.118095 56.281609,76.376213 57.692192,76.788818 
	C56.596600,77.628914 55.195137,78.314522 53.395805,78.998535 
	C53.267559,78.157669 53.537186,77.318390 53.939491,76.169540 
z"/>
<path fill="#EF9999" opacity="1.000000" stroke="none" 
	d="
M70.429077,73.115677 
	C64.713387,71.954636 59.184891,70.036949 54.035538,74.666885 
	C53.580009,75.017296 53.180107,74.970398 52.309265,74.648010 
	C50.913551,73.571701 49.988777,72.770874 48.929070,71.690933 
	C47.669075,70.210373 46.544018,69.008934 45.350559,67.507614 
	C45.268711,66.799576 45.255264,66.391418 45.645557,65.987167 
	C55.824009,66.060303 65.598717,66.129539 75.373428,66.198776 
	C73.984283,68.258095 72.595139,70.317413 71.176323,72.715431 
	C71.146652,73.054131 70.668648,73.099792 70.429077,73.115677 
z"/>
<path fill="#CC2525" opacity="1.000000" stroke="none" 
	d="
M49.064003,71.970047 
	C49.988777,72.770874 50.913551,73.571701 52.007370,74.630058 
	C41.632858,78.277412 26.928942,74.683693 21.033985,64.350929 
	C21.749437,64.003990 22.499805,64.002205 23.779444,64.304245 
	C31.684681,70.007004 39.254559,74.753906 49.064003,71.970047 
z"/>
<path fill="#FA7B7B" opacity="1.000000" stroke="none" 
	d="
M42.774025,40.177917 
	C46.930676,41.171413 50.832706,42.333981 54.723770,44.104530 
	C53.551598,45.168476 52.390392,45.624435 50.877335,45.936836 
	C47.347523,44.861057 44.169567,43.928833 40.991608,42.996613 
	C41.500874,42.113407 42.010139,41.230202 42.774025,40.177917 
z"/>
<path fill="#F96F6F" opacity="1.000000" stroke="none" 
	d="
M40.743916,43.107216 
	C44.169567,43.928833 47.347523,44.861057 50.669670,46.176880 
	C49.912369,47.378410 49.010880,48.196346 47.734367,48.977219 
	C44.229301,47.955883 41.099255,46.971611 37.969208,45.987343 
	C38.269096,45.511536 38.568985,45.035728 38.987892,44.304295 
	C39.570011,43.771725 40.033115,43.494774 40.743916,43.107216 
z"/>
<path fill="#F35757" opacity="1.000000" stroke="none" 
	d="
M29.984013,50.963074 
	C30.599606,50.500465 31.215197,50.037857 32.021034,49.349331 
	C33.244473,48.758381 34.277664,48.393349 35.793381,48.289230 
	C39.281002,50.053028 42.286095,51.555912 45.205475,53.393581 
	C44.773716,54.814407 44.427677,55.900452 43.690765,56.984215 
	C38.861267,54.975647 34.422642,52.969360 29.984013,50.963074 
z"/>
<path fill="#F86363" opacity="1.000000" stroke="none" 
	d="
M45.291191,53.058796 
	C42.286095,51.555912 39.281002,50.053028 36.122440,48.230965 
	C36.456249,47.336361 36.943527,46.760944 37.700005,46.086433 
	C41.099255,46.971611 44.229301,47.955883 47.684605,49.265739 
	C47.957085,49.977516 47.904305,50.363712 47.608582,50.914597 
	C46.674156,51.739124 45.982674,52.398960 45.291191,53.058796 
z"/>
<path fill="#EA4242" opacity="1.000000" stroke="none" 
	d="
M25.992863,52.132561 
	C26.425106,52.027794 26.857347,51.923023 27.662954,52.170685 
	C31.864635,58.081741 37.606457,59.597153 43.922199,60.386410 
	C43.977524,61.506100 43.978157,62.254807 43.566742,63.002716 
	C38.104759,61.666729 33.054825,60.331539 27.962267,58.633255 
	C27.277382,56.224297 26.635122,54.178429 25.992863,52.132561 
z"/>
<path fill="#EE4B4B" opacity="1.000000" stroke="none" 
	d="
M43.867512,60.015430 
	C37.606457,59.597153 31.864635,58.081741 27.996552,52.149399 
	C28.441753,51.513969 28.926722,51.252262 29.697853,50.976814 
	C34.422642,52.969360 38.861267,54.975647 43.704369,57.317081 
	C44.151855,58.093266 44.194874,58.534302 44.144470,59.235069 
	C43.989872,59.668343 43.928692,59.841888 43.867512,60.015430 
z"/>
<path fill="#D83C3C" opacity="1.000000" stroke="none" 
	d="
M25.621136,52.083897 
	C26.635122,54.178429 27.277382,56.224297 27.960320,59.008274 
	C28.000957,60.496063 28.000914,61.245739 27.655510,61.964329 
	C26.206957,61.620857 25.103767,61.308475 24.000578,60.996094 
	C22.667732,58.336376 21.334887,55.676662 19.987232,52.672062 
	C20.731487,52.234371 21.490549,52.141567 22.628090,51.985760 
	C23.754181,51.960247 24.501795,51.997738 25.621136,52.083897 
z"/>
<path fill="#DA2E2E" opacity="1.000000" stroke="none" 
	d="
M24.000349,61.371777 
	C25.103767,61.308475 26.206957,61.620857 27.963734,62.117805 
	C33.702969,65.708885 38.897430,68.783295 45.418961,67.807487 
	C46.544018,69.008934 47.669075,70.210373 48.929070,71.690933 
	C39.254559,74.753906 31.684681,70.007004 24.154619,64.304688 
	C24.000387,63.250034 24.000254,62.498745 24.000349,61.371777 
z"/>
<path fill="#FEB3B3" opacity="1.000000" stroke="none" 
	d="
M47.851524,50.749908 
	C47.904305,50.363712 47.957085,49.977516 48.059628,49.302803 
	C49.010880,48.196346 49.912369,47.378410 51.021523,46.320435 
	C52.390392,45.624435 53.551598,45.168476 54.898537,44.449051 
	C59.450214,44.773216 63.816151,45.360847 68.722069,46.301022 
	C70.773819,47.841496 72.285599,49.029427 73.850479,50.503635 
	C73.948273,51.177746 73.992966,51.565578 73.770279,52.246201 
	C67.291565,53.024136 61.078724,53.848022 54.869640,53.820618 
	C52.525799,53.810272 50.190639,51.831417 47.851524,50.749908 
z"/>
<path fill="#FC7272" opacity="1.000000" stroke="none" 
	d="
M73.797379,50.217358 
	C72.285599,49.029427 70.773819,47.841496 69.100121,46.376862 
	C71.415199,44.749138 73.892212,43.398121 76.758499,41.981014 
	C78.536537,42.600643 79.925293,43.286366 81.662674,43.958900 
	C82.011314,43.945709 82.090721,44.405392 81.800552,44.812561 
	C78.939384,46.885601 76.368385,48.551479 73.797379,50.217358 
z"/>
<path fill="#F65A5A" opacity="1.000000" stroke="none" 
	d="
M94.605049,45.906372 
	C94.739067,46.746307 94.497574,47.573948 93.769684,48.737465 
	C87.724640,51.083870 82.165993,53.094402 76.369461,55.056053 
	C75.838707,54.864708 75.533081,54.759109 75.184998,54.358086 
	C75.083984,53.356483 75.012703,52.687168 75.342407,52.012535 
	C79.832954,50.053017 83.922516,48.098808 88.012085,46.144600 
	C89.072853,46.076675 90.133629,46.008747 91.587372,45.871475 
	C92.730072,45.832779 93.479813,45.863426 94.605049,45.906372 
z"/>
<path fill="#FB6464" opacity="1.000000" stroke="none" 
	d="
M87.640900,46.063103 
	C83.922516,48.098808 79.832954,50.053017 75.116600,51.997246 
	C74.489807,51.987267 74.037659,51.953411 74.037659,51.953411 
	C73.992966,51.565578 73.948273,51.177746 73.850479,50.503635 
	C76.368385,48.551479 78.939384,46.885601 81.832298,45.043633 
	C83.859383,45.238899 85.564545,45.610256 87.640900,46.063103 
z"/>
<path fill="#ED4444" opacity="1.000000" stroke="none" 
	d="
M93.997124,53.995422 
	C94.556778,54.014683 95.116440,54.033943 96.099098,54.079521 
	C95.880486,55.237091 95.238869,56.368351 93.972992,57.748459 
	C87.881424,59.662247 82.414131,61.327187 76.928986,62.593868 
	C76.957474,61.133629 77.003799,60.071651 77.459473,59.005898 
	C83.244934,57.333225 88.621025,55.664326 93.997124,53.995422 
z"/>
<path fill="#E63C3C" opacity="1.000000" stroke="none" 
	d="
M76.946823,62.992126 
	C82.414131,61.327187 87.881424,59.662247 93.744049,57.980141 
	C93.785385,59.071224 93.431389,60.179474 93.052513,61.643658 
	C87.912117,64.281799 82.885750,66.920486 76.524551,65.701920 
	C76.366386,64.590042 76.656609,63.791084 76.946823,62.992126 
z"/>
<path fill="#F6A0A0" opacity="1.000000" stroke="none" 
	d="
M76.928986,62.593868 
	C76.656609,63.791084 76.366386,64.590042 76.083206,65.709351 
	C76.090256,66.029701 75.732567,66.126282 75.552994,66.162521 
	C65.598717,66.129539 55.824009,66.060303 45.512146,65.690689 
	C44.642925,64.594711 44.310856,63.799114 43.978790,63.003517 
	C43.978157,62.254807 43.977524,61.506100 43.922199,60.386410 
	C43.928692,59.841888 43.989872,59.668343 44.557461,59.242344 
	C54.040047,59.005413 63.018875,58.899601 71.991104,59.095722 
	C75.618652,59.175022 75.439934,57.102425 75.214722,54.690372 
	C75.533081,54.759109 75.838707,54.864708 76.448448,55.441620 
	C76.860245,56.920601 76.955177,57.965134 77.050110,59.009670 
	C77.003799,60.071651 76.957474,61.133629 76.928986,62.593868 
z"/>
<path fill="#F34F4F" opacity="1.000000" stroke="none" 
	d="
M77.459473,59.005898 
	C76.955177,57.965134 76.860245,56.920601 76.686325,55.490498 
	C82.165993,53.094402 87.724640,51.083870 93.640724,49.038670 
	C93.998390,50.390560 93.998611,51.777126 93.997978,53.579556 
	C88.621025,55.664326 83.244934,57.333225 77.459473,59.005898 
z"/>
<path fill="#E83A3A" opacity="1.000000" stroke="none" 
	d="
M43.566742,63.002716 
	C44.310856,63.799114 44.642925,64.594711 45.108406,65.686783 
	C45.255264,66.391418 45.268711,66.799576 45.350559,67.507614 
	C38.897430,68.783295 33.702969,65.708885 28.309097,62.148895 
	C28.000914,61.245739 28.000957,60.496063 28.002945,59.371368 
	C33.054825,60.331539 38.104759,61.666729 43.566742,63.002716 
z"/>
<path fill="#FCAAAA" opacity="1.000000" stroke="none" 
	d="
M75.184998,54.358086 
	C75.439934,57.102425 75.618652,59.175022 71.991104,59.095722 
	C63.018875,58.899601 54.040047,59.005413 44.650879,58.982616 
	C44.194874,58.534302 44.151855,58.093266 44.095238,57.319359 
	C44.427677,55.900452 44.773716,54.814407 45.205475,53.393581 
	C45.982674,52.398960 46.674156,51.739124 47.608582,50.914597 
	C50.190639,51.831417 52.525799,53.810272 54.869640,53.820618 
	C61.078724,53.848022 67.291565,53.024136 73.770279,52.246201 
	C74.037659,51.953411 74.489807,51.987267 74.715614,52.002556 
	C75.012703,52.687168 75.083984,53.356483 75.184998,54.358086 
z"/>
</svg>