<svg version="1.1" id="Layer_1" xmlns="http://www.w3.org/2000/svg" xmlns:xlink="http://www.w3.org/1999/xlink" x="0px" y="0px"
	 width="100%" viewBox="0 0 128 128" enable-background="new 0 0 128 128" xml:space="preserve">
<path fill="#000000" opacity="1.000000" stroke="none" 
	d="
M72.000000,129.000000 
	C48.000000,129.000000 24.500000,129.000000 1.000000,129.000000 
	C1.000000,86.333336 1.000000,43.666668 1.000000,1.000000 
	C43.666668,1.000000 86.333336,1.000000 129.000000,1.000000 
	C129.000000,43.666668 129.000000,86.333336 129.000000,129.000000 
	C110.166664,129.000000 91.333336,129.000000 72.000000,129.000000 
M82.814964,104.307228 
	C85.060448,101.109116 86.741615,97.204727 89.671761,94.863503 
	C95.344803,90.330666 96.603989,87.919403 95.391365,80.852478 
	C95.057640,78.907616 95.648911,76.241653 96.839561,74.694443 
	C102.136589,67.811066 100.882881,60.369858 93.356430,56.242039 
	C87.660591,53.118202 87.625130,52.948303 91.647888,48.054604 
	C96.601639,42.028339 95.566025,33.910213 89.060608,29.286247 
	C87.802711,31.788160 86.701294,34.352222 85.230415,36.683140 
	C84.772812,37.408318 83.314667,37.502125 82.314568,37.884972 
	C82.073814,36.838242 81.521301,35.746277 81.665062,34.755329 
	C81.883072,33.252602 82.585007,31.820084 83.081345,30.357738 
	C82.724976,30.034037 82.368607,29.710335 82.012238,29.386635 
	C78.118027,31.881844 74.223816,34.377056 69.167343,37.616985 
	C69.351044,33.989040 68.719185,31.083525 69.764969,29.034061 
	C71.907326,24.835629 75.119995,21.197298 77.536339,17.117702 
	C78.473190,15.535976 78.447342,13.384048 78.860054,11.491876 
	C77.021019,11.417612 75.015831,10.854758 73.390076,11.407642 
	C71.790924,11.951480 70.086601,13.362259 69.280281,14.853292 
	C66.147820,20.645771 63.318310,26.604240 60.462376,32.542450 
	C59.821201,33.875607 59.528801,35.376503 59.075840,36.800179 
	C58.502174,36.796528 57.928505,36.792873 57.354839,36.789223 
	C56.509335,33.285480 55.663834,29.781738 54.493462,24.931746 
	C51.573318,28.669277 49.250492,31.642288 46.465012,35.207458 
	C45.138927,32.180069 44.013123,29.609913 42.852917,26.961214 
	C36.732738,31.201630 35.638054,37.687767 39.300972,45.447857 
	C42.719196,52.689552 42.752762,52.749149 35.953949,56.578403 
	C31.919209,58.850868 28.912836,62.457146 30.303753,66.697960 
	C32.754360,74.169716 33.594681,81.951096 35.592606,89.289474 
	C37.285164,95.506226 44.237930,100.286774 48.848568,105.715073 
	C50.787701,107.998085 53.094456,110.088799 54.517727,112.663010 
	C56.881119,116.937561 59.857746,119.848465 64.977951,119.877052 
	C69.878380,119.904411 73.644897,117.476677 75.016808,113.064613 
	C76.301376,108.933434 78.919724,106.722176 82.814964,104.307228 
z"/>
<path fill="#0A0B0A" opacity="1.000000" stroke="none" 
	d="
M82.555481,104.562515 
	C78.919724,106.722176 76.301376,108.933434 75.016808,113.064613 
	C73.644897,117.476677 69.878380,119.904411 64.977951,119.877052 
	C59.857746,119.848465 56.881119,116.937561 54.517727,112.663010 
	C53.094456,110.088799 50.787701,107.998085 48.848568,105.715073 
	C44.237930,100.286774 37.285164,95.506226 35.592606,89.289474 
	C33.594681,81.951096 32.754360,74.169716 30.303753,66.697960 
	C28.912836,62.457146 31.919209,58.850868 35.953949,56.578403 
	C42.752762,52.749149 42.719196,52.689552 39.300972,45.447857 
	C35.638054,37.687767 36.732738,31.201630 42.852917,26.961214 
	C44.013123,29.609913 45.138927,32.180069 46.465012,35.207458 
	C49.250492,31.642288 51.573318,28.669277 54.493462,24.931746 
	C55.663834,29.781738 56.509335,33.285480 57.354839,36.789223 
	C57.928505,36.792873 58.502174,36.796528 59.075840,36.800179 
	C59.528801,35.376503 59.821201,33.875607 60.462376,32.542450 
	C63.318310,26.604240 66.147820,20.645771 69.280281,14.853292 
	C70.086601,13.362259 71.790924,11.951480 73.390076,11.407642 
	C75.015831,10.854758 77.021019,11.417612 78.860054,11.491877 
	C78.447342,13.384048 78.473190,15.535976 77.536339,17.117702 
	C75.119995,21.197298 71.907326,24.835629 69.764969,29.034061 
	C68.719185,31.083525 69.351044,33.989040 69.167343,37.616985 
	C74.223816,34.377056 78.118027,31.881844 82.012238,29.386635 
	C82.368607,29.710335 82.724976,30.034037 83.081345,30.357738 
	C82.585007,31.820084 81.883072,33.252602 81.665062,34.755329 
	C81.521301,35.746277 82.073814,36.838242 82.314575,37.884972 
	C83.314667,37.502125 84.772812,37.408318 85.230415,36.683140 
	C86.701294,34.352222 87.802711,31.788160 89.060608,29.286247 
	C95.566025,33.910213 96.601639,42.028339 91.647888,48.054604 
	C87.625130,52.948303 87.660591,53.118202 93.356430,56.242039 
	C100.882881,60.369858 102.136589,67.811066 96.839561,74.694443 
	C95.648911,76.241653 95.057640,78.907616 95.391365,80.852478 
	C96.603989,87.919403 95.344803,90.330666 89.671761,94.863503 
	C86.741615,97.204727 85.060448,101.109116 82.555481,104.562515 
M44.959511,48.245678 
	C43.805305,52.699265 43.386383,56.745152 48.729378,59.122601 
	C51.483749,60.348198 52.928535,60.136093 53.914490,57.127689 
	C55.177467,53.274021 56.732311,49.516003 58.969917,45.819462 
	C61.986214,45.509697 65.002510,45.199932 68.581589,45.366421 
	C70.695641,45.139084 72.809692,44.911747 74.682899,45.308285 
	C75.407623,49.354336 76.042816,53.422371 77.021233,57.406113 
	C77.102486,57.736942 79.733948,57.963120 80.787010,57.442287 
	C85.095718,55.311237 86.266724,51.668285 85.595337,47.537300 
	C86.437401,47.801670 87.513588,48.538258 88.084290,48.255306 
	C92.445923,46.092796 93.619339,39.432537 90.892838,35.721333 
	C87.593468,38.112026 84.279762,40.513111 80.094475,43.545731 
	C79.209274,39.698872 78.647438,37.257286 78.026489,34.558807 
	C77.226738,34.918560 76.523735,35.035591 76.123207,35.447056 
	C73.378426,38.266842 70.697037,41.148346 67.760445,43.201908 
	C63.831772,30.709011 68.877769,21.153933 78.089050,12.651102 
	C76.426163,12.375955 75.055496,12.322602 74.277069,12.975432 
	C65.254593,20.542213 62.124557,30.816528 61.507904,42.374374 
	C55.143265,40.629257 54.251656,35.201626 52.139790,30.405258 
	C51.052166,32.778179 50.352661,35.096588 49.838558,37.455406 
	C49.449684,39.239647 49.297535,41.075485 48.732979,42.294643 
	C46.177876,38.614914 43.622772,34.935184 40.788280,30.853102 
	C39.692719,36.077465 38.704914,41.016850 41.968117,45.629730 
	C42.575127,46.487804 43.910908,46.830330 44.959511,48.245678 
M69.526833,103.625916 
	C71.501503,103.671280 73.704666,104.292572 75.395248,103.621872 
	C77.709747,102.703651 79.634857,100.803947 81.726860,99.324905 
	C79.725845,97.146431 77.948868,94.666672 75.617249,92.932770 
	C74.638512,92.204933 72.257965,92.597374 70.906441,93.268921 
	C65.268570,96.070259 65.250504,96.504669 67.849655,103.277504 
	C62.711140,101.732201 60.344223,106.369057 56.816639,108.359947 
	C56.335022,108.631760 56.131020,110.572975 56.568024,111.086952 
	C58.273010,113.092270 60.513821,116.536331 62.139828,116.320122 
	C65.525017,115.870003 69.124962,113.969589 71.733711,111.649773 
	C74.110764,109.535988 71.854141,107.229973 69.870285,105.503822 
	C69.284317,104.993988 69.018524,104.116180 69.526833,103.625916 
M81.226898,62.980202 
	C76.350723,60.914703 72.390892,63.227917 68.973267,66.141312 
	C67.506691,67.391510 66.170181,70.263306 66.606018,71.915108 
	C67.188881,74.124161 69.182594,76.859520 71.220680,77.615242 
	C77.016731,79.764397 83.176582,74.602516 82.849739,68.373779 
	C82.754837,66.565422 82.288506,64.776550 82.581635,63.361355 
	C83.707153,65.698677 85.213585,67.935196 85.865326,70.397903 
	C86.753540,73.754204 88.649826,74.228935 91.446434,73.265579 
	C95.643524,71.819801 97.544403,68.510811 97.317665,64.392761 
	C97.085358,60.173347 93.949875,57.816883 90.067039,57.331055 
	C86.038422,56.826984 83.022850,58.734985 81.226898,62.980202 
M69.735924,61.272137 
	C73.032204,58.202576 74.184616,54.529873 71.741150,50.595322 
	C69.911812,47.649658 67.131165,45.780895 63.303253,47.195660 
	C59.031170,48.774590 56.263054,51.703232 56.232494,56.370831 
	C56.190742,62.748772 61.784710,64.987427 69.735924,61.272137 
M59.516209,76.212769 
	C64.539421,70.651817 64.375435,68.825661 57.623516,63.911606 
	C56.046188,62.763626 52.525860,61.664852 51.840683,62.386509 
	C49.469219,64.884224 47.291954,68.013176 46.397163,71.274063 
	C45.961861,72.860435 48.154274,76.518784 49.828026,77.026176 
	C52.549904,77.851318 55.822617,76.859383 59.516209,76.212769 
M42.394939,73.051620 
	C43.932175,69.617088 45.723087,66.262642 46.848537,62.698093 
	C47.176445,61.659523 45.924534,59.648094 44.846653,58.724915 
	C40.966686,55.401844 37.585575,58.043694 34.642258,60.367558 
	C31.595984,62.772709 30.986784,66.268341 32.580719,69.834839 
	C34.397839,73.900726 37.712223,74.676292 42.394939,73.051620 
M38.917850,90.826881 
	C40.813572,91.216042 43.038948,92.421944 44.534031,91.818497 
	C47.348484,90.682526 50.043552,88.774803 52.062012,86.533813 
	C52.478676,86.071205 49.976566,82.514404 48.374893,80.799095 
	C45.339252,77.548080 41.387989,77.278503 38.276360,80.155762 
	C35.087238,83.104668 35.292450,86.933342 38.917850,90.826881 
M88.740654,78.839348 
	C84.696335,77.250877 82.162025,80.179749 79.501175,82.196739 
	C78.131088,83.235298 76.422020,85.285423 76.632179,86.595039 
	C76.920059,88.389030 78.544868,90.591393 80.198692,91.426445 
	C85.153755,93.928337 91.440445,90.594383 92.616241,85.196510 
	C93.235458,82.353798 92.945557,79.845909 88.740654,78.839348 
M51.121525,95.670723 
	C49.543083,96.983215 45.554653,97.000740 47.438744,100.210320 
	C48.520924,102.053833 51.437973,103.072472 53.736412,103.847054 
	C54.948093,104.255379 57.032322,103.801735 57.969753,102.928818 
	C59.792080,101.231895 61.919899,99.097427 62.270561,96.882851 
	C62.469757,95.624817 59.540958,92.831741 57.764324,92.586235 
	C55.901100,92.328751 53.731110,94.291176 51.121525,95.670723 
M60.739712,81.389099 
	C59.424538,82.843796 58.109360,84.298500 56.794178,85.753197 
	C58.536606,87.311920 60.462708,90.323372 61.983746,90.131058 
	C65.288460,89.713234 69.028732,88.335739 71.392418,86.089417 
	C73.873100,83.731918 70.333656,82.372536 68.715858,80.972420 
	C67.508080,79.927147 66.262428,78.925652 64.949661,77.834892 
	C63.518814,79.061829 62.403324,80.018349 60.739712,81.389099 
z"/>
<path fill="#77AF31" opacity="1.000000" stroke="none" 
	d="
M68.018806,44.890167 
	C65.002510,45.199932 61.986214,45.509697 58.507835,45.803509 
	C58.045753,45.787556 58.117928,45.902328 57.939087,45.564426 
	C56.838833,45.072128 55.917423,44.917732 55.007057,44.799583 
	C55.018105,44.835831 55.090599,44.813713 54.834724,44.510574 
	C52.722912,44.149624 50.866974,44.091816 49.018368,43.747597 
	C49.030479,43.270241 49.035255,43.079300 49.040035,42.888359 
	C49.297535,41.075485 49.449684,39.239647 49.838558,37.455406 
	C50.352661,35.096588 51.052166,32.778179 52.139790,30.405258 
	C54.251656,35.201626 55.143265,40.629257 61.507904,42.374374 
	C62.124557,30.816528 65.254593,20.542213 74.277069,12.975432 
	C75.055496,12.322602 76.426163,12.375955 78.089050,12.651102 
	C68.877769,21.153933 63.831772,30.709011 67.881424,43.826057 
	C68.002411,44.450203 68.018806,44.890167 68.018806,44.890167 
z"/>
<path fill="#25262D" opacity="1.000000" stroke="none" 
	d="
M69.427048,61.486000 
	C61.784710,64.987427 56.190742,62.748772 56.232494,56.370831 
	C56.263054,51.703232 59.031170,48.774590 63.303253,47.195660 
	C67.131165,45.780895 69.911812,47.649658 71.741150,50.595322 
	C74.184616,54.529873 73.032204,58.202576 69.427048,61.486000 
z"/>
<path fill="#25262C" opacity="1.000000" stroke="none" 
	d="
M59.189526,76.423569 
	C55.822617,76.859383 52.549904,77.851318 49.828026,77.026176 
	C48.154274,76.518784 45.961861,72.860435 46.397163,71.274063 
	C47.291954,68.013176 49.469219,64.884224 51.840683,62.386509 
	C52.525860,61.664852 56.046188,62.763626 57.623516,63.911606 
	C64.375435,68.825661 64.539421,70.651817 59.189526,76.423569 
z"/>
<path fill="#24252B" opacity="1.000000" stroke="none" 
	d="
M81.992447,62.978741 
	C82.288506,64.776550 82.754837,66.565422 82.849739,68.373779 
	C83.176582,74.602516 77.016731,79.764397 71.220680,77.615242 
	C69.182594,76.859520 67.188881,74.124161 66.606018,71.915108 
	C66.170181,70.263306 67.506691,67.391510 68.973267,66.141312 
	C72.390892,63.227917 76.350723,60.914703 81.613235,62.989136 
	C81.999573,62.998074 81.992447,62.978741 81.992447,62.978741 
z"/>
<path fill="#25252C" opacity="1.000000" stroke="none" 
	d="
M42.058823,73.251831 
	C37.712223,74.676292 34.397839,73.900726 32.580719,69.834839 
	C30.986784,66.268341 31.595984,62.772709 34.642258,60.367558 
	C37.585575,58.043694 40.966686,55.401844 44.846653,58.724915 
	C45.924534,59.648094 47.176445,61.659523 46.848537,62.698093 
	C45.723087,66.262642 43.932175,69.617088 42.058823,73.251831 
z"/>
<path fill="#24252C" opacity="1.000000" stroke="none" 
	d="
M82.008072,63.002815 
	C83.022850,58.734985 86.038422,56.826984 90.067039,57.331055 
	C93.949875,57.816883 97.085358,60.173347 97.317665,64.392761 
	C97.544403,68.510811 95.643524,71.819801 91.446434,73.265579 
	C88.649826,74.228935 86.753540,73.754204 85.865326,70.397903 
	C85.213585,67.935196 83.707153,65.698677 82.287041,63.170048 
	C81.992447,62.978741 81.999573,62.998074 82.008072,63.002815 
z"/>
<path fill="#24252C" opacity="1.000000" stroke="none" 
	d="
M38.619865,90.570190 
	C35.292450,86.933342 35.087238,83.104668 38.276360,80.155762 
	C41.387989,77.278503 45.339252,77.548080 48.374893,80.799095 
	C49.976566,82.514404 52.478676,86.071205 52.062012,86.533813 
	C50.043552,88.774803 47.348484,90.682526 44.534031,91.818497 
	C43.038948,92.421944 40.813572,91.216042 38.619865,90.570190 
z"/>
<path fill="#24252C" opacity="1.000000" stroke="none" 
	d="
M89.116165,78.918182 
	C92.945557,79.845909 93.235458,82.353798 92.616241,85.196510 
	C91.440445,90.594383 85.153755,93.928337 80.198692,91.426445 
	C78.544868,90.591393 76.920059,88.389030 76.632179,86.595039 
	C76.422020,85.285423 78.131088,83.235298 79.501175,82.196739 
	C82.162025,80.179749 84.696335,77.250877 89.116165,78.918182 
z"/>
<path fill="#24252B" opacity="1.000000" stroke="none" 
	d="
M68.606003,103.407005 
	C69.018524,104.116180 69.284317,104.993988 69.870285,105.503822 
	C71.854141,107.229973 74.110764,109.535988 71.733711,111.649773 
	C69.124962,113.969589 65.525017,115.870003 62.139828,116.320122 
	C60.513821,116.536331 58.273010,113.092270 56.568024,111.086952 
	C56.131020,110.572975 56.335022,108.631760 56.816639,108.359947 
	C60.344223,106.369057 62.711140,101.732201 68.219025,103.332893 
	C68.588394,103.388283 68.606003,103.407005 68.606003,103.407005 
z"/>
<path fill="#72AC2D" opacity="1.000000" stroke="none" 
	d="
M68.300201,45.128296 
	C68.018806,44.890167 68.002411,44.450203 67.998825,44.230087 
	C70.697037,41.148346 73.378426,38.266842 76.123207,35.447056 
	C76.523735,35.035591 77.226738,34.918560 78.026489,34.558807 
	C78.647438,37.257286 79.209274,39.698872 80.094475,43.545731 
	C84.279762,40.513111 87.593468,38.112026 90.892838,35.721333 
	C93.619339,39.432537 92.445923,46.092796 88.084290,48.255306 
	C87.513588,48.538258 86.437401,47.801670 85.238312,47.154251 
	C84.445137,46.508335 84.008995,46.245468 83.285858,45.702156 
	C80.300514,45.225445 77.602173,45.029182 74.945892,44.800770 
	C74.987968,44.768616 74.923744,44.684414 74.923744,44.684414 
	C72.809692,44.911747 70.695641,45.139084 68.300201,45.128296 
z"/>
<path fill="#24252B" opacity="1.000000" stroke="none" 
	d="
M51.408356,95.477066 
	C53.731110,94.291176 55.901100,92.328751 57.764324,92.586235 
	C59.540958,92.831741 62.469757,95.624817 62.270561,96.882851 
	C61.919899,99.097427 59.792080,101.231895 57.969753,102.928818 
	C57.032322,103.801735 54.948093,104.255379 53.736412,103.847054 
	C51.437973,103.072472 48.520924,102.053833 47.438744,100.210320 
	C45.554653,97.000740 49.543083,96.983215 51.408356,95.477066 
z"/>
<path fill="#24252B" opacity="1.000000" stroke="none" 
	d="
M69.066422,103.516464 
	C68.606003,103.407005 68.588394,103.388283 68.586029,103.385933 
	C65.250504,96.504669 65.268570,96.070259 70.906441,93.268921 
	C72.257965,92.597374 74.638512,92.204933 75.617249,92.932770 
	C77.948868,94.666672 79.725845,97.146431 81.726860,99.324905 
	C79.634857,100.803947 77.709747,102.703651 75.395248,103.621872 
	C73.704666,104.292572 71.501503,103.671280 69.066422,103.516464 
z"/>
<path fill="#23242B" opacity="1.000000" stroke="none" 
	d="
M61.013775,81.181984 
	C62.403324,80.018349 63.518814,79.061829 64.949661,77.834892 
	C66.262428,78.925652 67.508080,79.927147 68.715858,80.972420 
	C70.333656,82.372536 73.873100,83.731918 71.392418,86.089417 
	C69.028732,88.335739 65.288460,89.713234 61.983746,90.131058 
	C60.462708,90.323372 58.536606,87.311920 56.794182,85.753204 
	C58.109360,84.298500 59.424538,82.843796 61.013775,81.181984 
z"/>
<path fill="#25262D" opacity="1.000000" stroke="none" 
	d="
M58.103569,45.752163 
	C56.732311,49.516003 55.177467,53.274021 53.914490,57.127689 
	C52.928535,60.136093 51.483749,60.348198 48.729378,59.122601 
	C43.386383,56.745152 43.805305,52.699265 45.032326,47.964912 
	C45.105145,47.684151 44.851875,47.903820 45.234268,47.883720 
	C48.774643,46.846985 51.932621,45.830349 55.090599,44.813713 
	C55.090599,44.813713 55.018105,44.835831 55.276520,45.009190 
	C56.395931,45.422474 57.256931,45.662403 58.117928,45.902328 
	C58.117928,45.902328 58.045753,45.787556 58.103569,45.752163 
z"/>
<path fill="#24252C" opacity="1.000000" stroke="none" 
	d="
M83.572853,45.982601 
	C84.008995,46.245468 84.445137,46.508335 84.947083,46.955109 
	C86.266724,51.668285 85.095718,55.311237 80.787010,57.442287 
	C79.733948,57.963120 77.102486,57.736942 77.021233,57.406113 
	C76.042816,53.422371 75.407623,49.354336 74.803322,44.996349 
	C74.923744,44.684414 74.987968,44.768616 75.371719,44.864464 
	C78.361267,45.301071 80.967064,45.641838 83.572853,45.982601 
z"/>
<path fill="#76AF30" opacity="1.000000" stroke="none" 
	d="
M48.886505,42.591499 
	C49.035255,43.079300 49.030479,43.270241 48.790558,43.979698 
	C47.320900,45.633415 46.086388,46.768616 44.851875,47.903820 
	C44.851875,47.903820 45.105145,47.684151 45.007748,47.547470 
	C43.910908,46.830330 42.575127,46.487804 41.968117,45.629730 
	C38.704914,41.016850 39.692719,36.077465 40.788280,30.853102 
	C43.622772,34.935184 46.177876,38.614914 48.886505,42.591499 
z"/>
<path fill="#0A0B0A" opacity="1.000000" stroke="none" 
	d="
M45.234268,47.883720 
	C46.086388,46.768616 47.320900,45.633415 48.783226,44.266113 
	C50.866974,44.091816 52.722912,44.149624 54.834724,44.510574 
	C51.932621,45.830349 48.774643,46.846985 45.234268,47.883720 
z"/>
<path fill="#0A0B0A" opacity="1.000000" stroke="none" 
	d="
M57.939087,45.564430 
	C57.256931,45.662403 56.395931,45.422474 55.265472,44.972939 
	C55.917423,44.917732 56.838833,45.072128 57.939087,45.564430 
z"/>
<path fill="#0A0B0A" opacity="1.000000" stroke="none" 
	d="
M83.285858,45.702156 
	C80.967064,45.641838 78.361267,45.301071 75.329651,44.896614 
	C77.602173,45.029182 80.300514,45.225445 83.285858,45.702156 
z"/>
</svg>