<svg version="1.1" id="Layer_1" xmlns="http://www.w3.org/2000/svg" xmlns:xlink="http://www.w3.org/1999/xlink" x="0px" y="0px"
	 width="100%" viewBox="0 0 128 128" enable-background="new 0 0 128 128" xml:space="preserve">
<path fill="#010201" opacity="1.000000" stroke="none" 
	d="
M82.000000,129.000000 
	C54.666668,129.000000 27.833334,129.000000 1.000000,129.000000 
	C1.000000,86.333336 1.000000,43.666668 1.000000,1.000000 
	C43.666668,1.000000 86.333336,1.000000 129.000000,1.000000 
	C129.000000,43.666668 129.000000,86.333336 129.000000,129.000000 
	C113.500000,129.000000 98.000000,129.000000 82.000000,129.000000 
M57.025253,119.083885 
	C57.025253,119.083885 57.052475,119.168182 57.633282,119.051071 
	C58.086548,118.691048 58.539810,118.331032 58.976612,117.973312 
	C58.976612,117.973312 58.965588,117.986053 59.603592,117.757729 
	C65.271919,113.501381 68.748260,107.808701 70.459091,101.003952 
	C74.179207,86.207352 66.284630,70.647385 53.055225,66.847298 
	C53.055225,66.847298 53.094025,66.941406 52.853107,66.514473 
	C52.597980,66.285065 52.298897,66.167213 51.217022,65.878616 
	C35.133652,61.198517 18.547558,71.038132 14.354249,87.747261 
	C11.377583,99.608421 15.638552,112.058517 25.034069,118.952522 
	C34.219307,125.692230 46.121338,126.114563 56.472637,119.856171 
	C56.684956,119.589722 56.897278,119.323265 57.025253,119.083885 
M14.148733,33.223370 
	C13.738969,33.140079 13.329205,33.056789 12.370721,32.640968 
	C11.904912,32.946560 10.996445,33.343208 11.037845,33.544464 
	C12.157398,38.987034 13.374240,44.409588 14.538054,49.669819 
	C17.504601,49.669819 19.625359,49.674149 21.745943,49.657047 
	C21.852129,49.656189 21.956816,49.469608 22.069290,49.357994 
	C22.052406,49.043850 22.160238,48.627422 21.999414,48.431324 
	C20.325123,46.389797 18.385300,44.523842 16.990902,42.311798 
	C16.232363,41.108463 16.380047,39.333870 16.789846,37.966553 
	C19.748066,41.084846 22.706287,44.203140 24.967134,46.586323 
	C26.959759,44.722031 28.371197,43.401497 29.934622,42.966854 
	C29.101112,50.012020 31.126877,55.736450 37.439247,59.598137 
	C43.270462,50.179646 42.787792,48.265179 33.245186,42.559704 
	C32.691380,42.228584 32.042931,42.055752 30.969627,41.263165 
	C25.357494,38.770016 19.745359,36.276867 14.094200,33.860950 
	C14.094200,33.860950 14.171586,33.899681 14.148733,33.223370 
M98.343765,45.205311 
	C97.156128,46.576988 95.890152,47.889130 94.794640,49.330807 
	C90.428139,55.077068 90.469475,55.843445 95.178398,61.339695 
	C99.980644,56.965584 98.490883,50.934994 99.753899,45.296310 
	C99.753899,45.296310 99.999435,44.920460 100.708664,44.948280 
	C101.698486,46.047840 102.688301,47.147404 103.882484,48.473984 
	C104.870438,47.096046 105.825157,45.310078 107.206184,43.960274 
	C108.726059,42.474751 110.637909,41.390266 112.598885,40.884705 
	C110.804520,44.114441 109.010155,47.344173 107.178406,50.641193 
	C107.696716,50.723831 108.021751,50.840572 108.335098,50.814854 
	C110.095001,50.670399 111.852081,50.491627 113.610130,50.324562 
	C112.325661,51.613422 111.074890,52.938820 109.738586,54.171474 
	C109.265953,54.607437 108.594696,54.838036 107.996925,55.126789 
	C103.456558,57.320076 99.110397,59.705959 97.746597,65.305779 
	C100.349922,67.228996 102.978188,69.170647 105.655174,71.148285 
	C110.532875,68.239586 113.108765,63.782467 113.948669,58.578838 
	C115.268753,50.400196 116.033920,42.131992 116.923309,33.946968 
	C116.923309,33.946968 116.962326,34.060078 117.379974,33.852245 
	C117.610466,33.610710 117.712944,33.323471 117.595734,32.319111 
	C111.714111,36.169804 105.832489,40.020496 99.462242,44.071278 
	C99.299355,44.370483 99.136459,44.669689 98.343765,45.205311 
M64.949722,9.780583 
	C64.257057,10.061588 63.163464,10.156457 62.933308,10.652192 
	C60.443451,16.015146 58.089302,21.441109 55.822372,26.568750 
	C58.680271,28.005539 60.647270,28.994434 63.146614,30.250963 
	C62.849739,26.820339 62.308102,23.844627 62.468285,20.907188 
	C62.539169,19.607334 64.031197,18.384979 65.220787,17.876514 
	C65.747711,21.984545 66.274628,26.092575 66.697205,29.387096 
	C69.018539,28.885807 70.881447,28.483517 72.638191,28.743876 
	C71.200119,30.936533 69.740036,33.115135 68.328911,35.325001 
	C65.959511,39.035538 66.831505,41.327744 70.960457,42.342484 
	C72.988197,42.840824 75.014015,43.346981 77.556946,43.977631 
	C78.056206,37.880341 76.532372,32.815289 73.672348,27.333359 
	C70.797966,21.718664 67.923576,16.103971 64.949722,9.780583 
M55.921818,63.096500 
	C55.921818,63.096500 55.848923,63.166214 56.299236,63.670872 
	C70.031746,70.775009 75.480644,82.587860 75.126976,97.197235 
	C78.842270,97.496323 82.126244,97.760681 85.451599,98.028374 
	C85.525078,95.349159 83.212372,91.510803 88.913132,92.557709 
	C89.043022,92.543503 89.172913,92.529297 89.302795,92.515099 
	C89.245102,92.304733 89.187408,92.094368 89.075600,91.107620 
	C90.366158,89.542931 91.656715,87.978241 93.150314,86.167389 
	C92.805794,84.900352 92.268105,82.922890 92.017303,80.167358 
	C96.069427,63.177887 85.396729,47.383087 68.183350,45.692146 
	C57.530926,43.950584 44.717472,51.165142 41.932457,60.652866 
	C45.686859,61.136848 49.411251,61.616959 53.294258,62.183815 
	C53.294258,62.183815 53.460938,62.113811 53.951359,62.637833 
	C54.632267,62.814178 55.313175,62.990524 55.921818,63.096500 
M90.096947,118.085487 
	C89.315315,114.040344 88.533684,109.995209 87.802559,106.211433 
	C91.890182,105.037132 96.153000,103.812500 100.021278,102.701210 
	C101.266327,106.636719 102.489685,110.503677 103.912132,114.999916 
	C116.250786,102.406387 111.413246,74.925652 96.985565,70.262817 
	C96.496613,73.712379 95.447205,77.153419 95.696396,80.497696 
	C95.934746,83.696533 97.523308,86.794762 98.602188,90.201759 
	C96.816101,90.680061 95.139610,91.129021 93.537148,91.558144 
	C93.750778,93.359642 93.935074,94.913780 94.161018,96.819168 
	C92.222237,96.819168 90.803467,96.819168 89.389198,96.819168 
	C89.389198,98.850952 89.389198,100.584290 89.389198,103.066414 
	C87.254517,102.477974 85.581306,101.646660 83.902435,101.635071 
	C80.898323,101.614326 76.996910,101.023743 75.103745,102.614716 
	C72.554008,104.757446 71.550728,108.740364 69.429642,112.491486 
	C69.408173,113.582291 68.979195,114.890236 69.427147,115.730904 
	C75.001106,126.191444 94.445427,127.258720 102.225708,116.671783 
	C97.685028,117.530952 93.937981,118.239952 90.096947,118.085487 
M21.449841,61.119106 
	C26.477139,66.665581 26.970316,66.688789 33.457447,61.684235 
	C27.366856,53.309422 25.394724,52.317242 16.820473,53.678169 
	C18.283140,56.079281 19.640036,58.306763 21.449841,61.119106 
M55.169849,32.384888 
	C55.169849,35.901443 55.169849,39.417995 55.169849,43.242924 
	C58.436394,42.552948 61.102772,41.989742 63.681660,41.445015 
	C63.755409,36.843193 60.399620,31.746803 56.579758,30.457451 
	C56.325401,30.371597 55.760571,31.205547 55.169849,32.384888 
M97.505775,107.556152 
	C95.879219,108.112915 94.252663,108.669670 92.412727,109.299469 
	C93.214989,111.057030 93.805923,112.351654 94.450569,113.763916 
	C96.035622,113.220749 97.350105,112.770309 98.633934,112.330368 
	C98.328506,110.717804 98.085846,109.436630 97.505775,107.556152 
z"/>
<path fill="#04417D" opacity="1.000000" stroke="none" 
	d="
M55.987190,120.050873 
	C46.121338,126.114563 34.219307,125.692230 25.034069,118.952522 
	C15.638552,112.058517 11.377583,99.608421 14.354249,87.747261 
	C18.547558,71.038132 35.133652,61.198517 51.756054,66.177979 
	C52.536560,66.674782 52.802872,66.829475 53.094025,66.941406 
	C53.094025,66.941406 53.055225,66.847298 53.092804,67.190987 
	C53.142353,68.017105 53.154327,68.499542 52.815262,68.840919 
	C46.230770,65.189995 40.059883,65.548935 34.022774,69.136139 
	C30.227203,71.391441 28.629021,74.842842 29.007080,79.229935 
	C29.359241,83.316475 31.763969,85.781952 35.289005,87.508286 
	C43.975716,91.762451 58.751568,85.445480 57.305569,74.029266 
	C66.776543,85.917397 68.944206,101.746651 60.933460,113.527527 
	C60.035015,114.848816 59.610096,116.492096 58.965584,117.986053 
	C58.965588,117.986053 58.976612,117.973312 58.704666,118.050507 
	C57.972637,118.474533 57.512554,118.821358 57.052475,119.168182 
	C57.052475,119.168182 57.025253,119.083885 56.855629,119.206932 
	C56.453064,119.570274 56.220127,119.810577 55.987190,120.050873 
M49.152233,120.412994 
	C49.619812,119.362625 50.512047,118.299385 50.480667,117.264130 
	C50.352173,113.025414 52.274254,110.742302 56.289734,109.491310 
	C57.817673,109.015297 58.908573,107.136444 60.775261,105.342949 
	C58.751644,104.728981 57.844582,104.239403 56.923347,104.211121 
	C52.778305,104.083839 50.495239,102.684586 50.843300,97.883316 
	C51.009598,95.589348 49.546448,93.177246 48.615330,90.148590 
	C45.545277,94.095062 43.773930,98.572250 40.869030,99.499939 
	C37.841969,100.466660 33.721558,98.009789 28.918779,96.743950 
	C29.883383,99.594276 29.983114,102.755081 31.598156,104.111015 
	C36.019093,107.822701 35.049160,110.510132 31.137905,113.492455 
	C30.588526,113.911362 30.416630,114.825317 30.011684,115.625328 
	C34.662964,118.835579 38.387005,116.310211 42.010155,114.173805 
	C44.304169,116.509666 46.409847,118.653763 49.152233,120.412994 
z"/>
<path fill="#04417D" opacity="1.000000" stroke="none" 
	d="
M88.655136,92.366272 
	C83.212372,91.510803 85.525078,95.349159 85.451599,98.028374 
	C82.126244,97.760681 78.842270,97.496323 75.126976,97.197235 
	C75.480644,82.587860 70.031746,70.775009 56.528061,63.381523 
	C59.398636,62.872276 62.171658,63.083786 64.650772,62.329422 
	C68.200027,61.249428 70.886360,58.705486 70.660698,54.686043 
	C70.425896,50.503880 67.247772,48.843807 63.528572,48.228710 
	C54.577908,46.748409 49.978218,52.916100 53.135643,62.097073 
	C49.411251,61.616959 45.686859,61.136848 41.932457,60.652866 
	C44.717472,51.165142 57.530926,43.950584 68.755615,46.092060 
	C80.919746,55.294697 89.704964,65.922379 91.730423,80.945427 
	C92.268105,82.922890 92.805794,84.900352 93.150314,86.167389 
	C91.656715,87.978241 90.366158,89.542931 88.983688,91.616058 
	C88.891777,92.124496 88.655136,92.366272 88.655136,92.366272 
z"/>
<path fill="#04407C" opacity="1.000000" stroke="none" 
	d="
M69.883728,111.933502 
	C71.550728,108.740364 72.554008,104.757446 75.103745,102.614716 
	C76.996910,101.023743 80.898323,101.614326 83.902435,101.635071 
	C85.581306,101.646660 87.254517,102.477974 89.389198,103.066414 
	C89.389198,100.584290 89.389198,98.850952 89.389198,96.819168 
	C90.803467,96.819168 92.222237,96.819168 94.161018,96.819168 
	C93.935074,94.913780 93.750778,93.359642 93.537148,91.558144 
	C95.139610,91.129021 96.816101,90.680061 98.602188,90.201759 
	C97.523308,86.794762 95.934746,83.696533 95.696396,80.497696 
	C95.447205,77.153419 96.496613,73.712379 96.985565,70.262817 
	C111.413246,74.925652 116.250786,102.406387 103.912132,114.999916 
	C102.489685,110.503677 101.266327,106.636719 100.021278,102.701210 
	C96.153000,103.812500 91.890182,105.037132 87.802559,106.211433 
	C88.533684,109.995209 89.315315,114.040344 89.792633,118.707138 
	C81.428551,120.906166 75.346542,117.240555 69.883728,111.933502 
M78.389061,107.676361 
	C77.470711,109.617027 76.369080,111.506226 75.796722,113.544067 
	C75.689003,113.927605 78.273926,115.719566 78.623131,115.470291 
	C80.478111,114.146103 82.932404,112.627769 83.455109,110.707413 
	C84.289146,107.643227 81.827629,106.846596 78.389061,107.676361 
z"/>
<path fill="#72C047" opacity="1.000000" stroke="none" 
	d="
M117.034058,33.901714 
	C116.033920,42.131992 115.268753,50.400196 113.948669,58.578838 
	C113.108765,63.782467 110.532875,68.239586 105.655174,71.148285 
	C102.978188,69.170647 100.349922,67.228996 97.746597,65.305779 
	C99.110397,59.705959 103.456558,57.320076 107.996925,55.126789 
	C108.594696,54.838036 109.265953,54.607437 109.738586,54.171474 
	C111.074890,52.938820 112.325661,51.613422 113.610130,50.324562 
	C111.852081,50.491627 110.095001,50.670399 108.335098,50.814854 
	C108.021751,50.840572 107.696716,50.723831 107.178406,50.641193 
	C109.010155,47.344173 110.804520,44.114441 112.695419,40.265804 
	C114.205994,37.731842 115.620033,35.816776 117.034058,33.901714 
z"/>
<path fill="#1B2861" opacity="1.000000" stroke="none" 
	d="
M59.284588,117.871887 
	C59.610096,116.492096 60.035015,114.848816 60.933460,113.527527 
	C68.944206,101.746651 66.776543,85.917397 57.281403,73.865372 
	C56.981617,73.493286 56.945156,73.160149 56.807533,72.941498 
	C56.441265,72.466545 56.212624,72.210236 55.841541,71.779099 
	C55.504669,71.374306 55.296600,71.157440 54.917343,70.766006 
	C54.538387,70.335052 54.289188,70.124695 53.872009,69.784691 
	C53.541412,69.410416 53.352905,69.197037 53.166302,68.981972 
	C53.154327,68.499542 53.142353,68.017105 53.139851,67.171577 
	C66.284630,70.647385 74.179207,86.207352 70.459091,101.003952 
	C68.748260,107.808701 65.271919,113.501381 59.284588,117.871887 
z"/>
<path fill="#225C92" opacity="1.000000" stroke="none" 
	d="
M53.214951,62.140442 
	C49.978218,52.916100 54.577908,46.748409 63.528572,48.228710 
	C67.247772,48.843807 70.425896,50.503880 70.660698,54.686043 
	C70.886360,58.705486 68.200027,61.249428 64.650772,62.329422 
	C62.171658,63.083786 59.398636,62.872276 56.302906,63.129196 
	C55.848923,63.166214 55.921818,63.096500 55.679596,62.923866 
	C54.778561,62.538761 54.119751,62.326286 53.460938,62.113811 
	C53.460938,62.113811 53.294258,62.183815 53.214951,62.140442 
z"/>
<path fill="#1A2860" opacity="1.000000" stroke="none" 
	d="
M91.873863,80.556396 
	C89.704964,65.922379 80.919746,55.294697 69.113632,46.223270 
	C85.396729,47.383087 96.069427,63.177887 91.873863,80.556396 
z"/>
<path fill="#1A2861" opacity="1.000000" stroke="none" 
	d="
M69.656685,112.212494 
	C75.346542,117.240555 81.428551,120.906166 89.839630,119.138870 
	C93.937981,118.239952 97.685028,117.530952 102.225708,116.671783 
	C94.445427,127.258720 75.001106,126.191444 69.427147,115.730904 
	C68.979195,114.890236 69.408173,113.582291 69.656685,112.212494 
z"/>
<path fill="#74C347" opacity="1.000000" stroke="none" 
	d="
M31.438524,41.809258 
	C32.042931,42.055752 32.691380,42.228584 33.245186,42.559704 
	C42.787792,48.265179 43.270462,50.179646 37.439247,59.598137 
	C31.126877,55.736450 29.101112,50.012020 30.272652,42.456291 
	C30.886631,41.900242 31.162579,41.854748 31.438524,41.809258 
z"/>
<path fill="#29B056" opacity="1.000000" stroke="none" 
	d="
M21.223385,60.826675 
	C19.640036,58.306763 18.283140,56.079281 16.820473,53.678169 
	C25.394724,52.317242 27.366856,53.309422 33.457447,61.684235 
	C26.970316,66.688789 26.477139,66.665581 21.223385,60.826675 
z"/>
<path fill="#71BF46" opacity="1.000000" stroke="none" 
	d="
M73.811356,28.006847 
	C76.532372,32.815289 78.056206,37.880341 77.556946,43.977631 
	C75.014015,43.346981 72.988197,42.840824 70.960457,42.342484 
	C66.831505,41.327744 65.959511,39.035538 68.328911,35.325001 
	C69.740036,33.115135 71.200119,30.936533 72.958191,28.396322 
	C73.455910,28.034796 73.633629,28.020823 73.811356,28.006847 
z"/>
<path fill="#29A952" opacity="1.000000" stroke="none" 
	d="
M64.878082,17.127445 
	C64.031197,18.384979 62.539169,19.607334 62.468285,20.907188 
	C62.308102,23.844627 62.849739,26.820339 63.146614,30.250963 
	C60.647270,28.994434 58.680271,28.005539 55.822372,26.568750 
	C58.089302,21.441109 60.443451,16.015146 62.933308,10.652192 
	C63.163464,10.156457 64.257057,10.061588 65.015152,10.534889 
	C65.013084,13.235278 64.945587,15.181361 64.878082,17.127445 
z"/>
<path fill="#2AAE54" opacity="1.000000" stroke="none" 
	d="
M116.978683,33.924339 
	C115.620033,35.816776 114.205994,37.731842 112.585480,39.888988 
	C110.637909,41.390266 108.726059,42.474751 107.206184,43.960274 
	C105.825157,45.310078 104.870438,47.096046 103.882484,48.473984 
	C102.688301,47.147404 101.698486,46.047840 100.342941,44.672005 
	C99.968430,44.220879 99.959641,44.046028 99.950859,43.871185 
	C105.832489,40.020496 111.714111,36.169804 117.554787,32.856941 
	C117.387337,33.664085 117.203499,33.885857 116.962326,34.060078 
	C116.962326,34.060078 116.923309,33.946968 116.978683,33.924339 
z"/>
<path fill="#29AF56" opacity="1.000000" stroke="none" 
	d="
M55.254997,31.998283 
	C55.760571,31.205547 56.325401,30.371597 56.579758,30.457451 
	C60.399620,31.746803 63.755409,36.843193 63.681660,41.445015 
	C61.102772,41.989742 58.436394,42.552948 55.169849,43.242924 
	C55.169849,39.417995 55.169849,35.901443 55.254997,31.998283 
z"/>
<path fill="#29AD54" opacity="1.000000" stroke="none" 
	d="
M16.118992,37.816936 
	C16.380047,39.333870 16.232363,41.108463 16.990902,42.311798 
	C18.385300,44.523842 20.325123,46.389797 21.999414,48.431324 
	C22.160238,48.627422 22.052406,49.043850 22.065746,49.363747 
	C21.956816,49.469608 21.852129,49.656189 21.745943,49.657047 
	C19.625359,49.674149 17.504601,49.669819 14.538054,49.669819 
	C13.374240,44.409588 12.157398,38.987034 11.037845,33.544464 
	C10.996445,33.343208 11.904912,32.946560 12.820847,33.004425 
	C13.571177,33.545147 13.871381,33.722416 14.171586,33.899681 
	C14.171586,33.899681 14.094200,33.860950 14.163574,34.143021 
	C14.861629,35.555710 15.490311,36.686321 16.118992,37.816936 
z"/>
<path fill="#28AB54" opacity="1.000000" stroke="none" 
	d="
M99.384514,45.549744 
	C98.490883,50.934994 99.980644,56.965584 95.178398,61.339695 
	C90.469475,55.843445 90.428139,55.077068 94.794640,49.330807 
	C95.890152,47.889130 97.156128,46.576988 98.760330,45.233078 
	C99.176888,45.260845 99.384514,45.549744 99.384514,45.549744 
z"/>
<path fill="#6CB643" opacity="1.000000" stroke="none" 
	d="
M16.454418,37.891747 
	C15.490311,36.686321 14.861629,35.555710 14.183086,34.104408 
	C19.745359,36.276867 25.357494,38.770016 31.204075,41.536209 
	C31.162579,41.854748 30.886631,41.900242 30.196659,42.013344 
	C28.371197,43.401497 26.959759,44.722031 24.967134,46.586323 
	C22.706287,44.203140 19.748066,41.084846 16.454418,37.891747 
z"/>
<path fill="#6FBB44" opacity="1.000000" stroke="none" 
	d="
M65.049438,17.501980 
	C64.945587,15.181361 65.013084,13.235278 65.064888,10.889236 
	C67.923576,16.103971 70.797966,21.718664 73.741852,27.670103 
	C73.633629,28.020823 73.455910,28.034796 73.011269,28.064997 
	C70.881447,28.483517 69.018539,28.885807 66.697205,29.387096 
	C66.274628,26.092575 65.747711,21.984545 65.049438,17.501980 
z"/>
<path fill="#043E78" opacity="1.000000" stroke="none" 
	d="
M97.674477,107.855804 
	C98.085846,109.436630 98.328506,110.717804 98.633934,112.330368 
	C97.350105,112.770309 96.035622,113.220749 94.450569,113.763916 
	C93.805923,112.351654 93.214989,111.057030 92.412727,109.299469 
	C94.252663,108.669670 95.879219,108.112915 97.674477,107.855804 
z"/>
<path fill="#04417D" opacity="1.000000" stroke="none" 
	d="
M53.706146,62.375824 
	C54.119751,62.326286 54.778561,62.538761 55.715729,62.959053 
	C55.313175,62.990524 54.632267,62.814178 53.706146,62.375824 
z"/>
<path fill="#1B2861" opacity="1.000000" stroke="none" 
	d="
M57.342880,119.109627 
	C57.512554,118.821358 57.972637,118.474533 58.712898,118.049362 
	C58.539810,118.331032 58.086548,118.691048 57.342880,119.109627 
z"/>
<path fill="#04417D" opacity="1.000000" stroke="none" 
	d="
M89.010742,92.004250 
	C89.187408,92.094368 89.245102,92.304733 89.302795,92.515099 
	C89.172913,92.529297 89.043022,92.543503 88.784134,92.461990 
	C88.655136,92.366272 88.891777,92.124496 89.010742,92.004250 
z"/>
<path fill="#1B2861" opacity="1.000000" stroke="none" 
	d="
M52.973564,66.727936 
	C52.802872,66.829475 52.536560,66.674782 52.125473,66.319122 
	C52.298897,66.167213 52.597980,66.285065 52.973564,66.727936 
z"/>
<path fill="#28AB54" opacity="1.000000" stroke="none" 
	d="
M99.706551,43.971230 
	C99.959641,44.046028 99.968430,44.220879 99.988327,44.658092 
	C99.999435,44.920460 99.753899,45.296310 99.569206,45.423027 
	C99.384514,45.549744 99.176888,45.260845 99.075226,45.114868 
	C99.136459,44.669689 99.299355,44.370483 99.706551,43.971230 
z"/>
<path fill="#72C047" opacity="1.000000" stroke="none" 
	d="
M117.171150,33.956161 
	C117.203499,33.885857 117.387337,33.664085 117.600616,33.192650 
	C117.712944,33.323471 117.610466,33.610710 117.171150,33.956161 
z"/>
<path fill="#6CB643" opacity="1.000000" stroke="none" 
	d="
M14.160160,33.561523 
	C13.871381,33.722416 13.571177,33.545147 13.095206,33.170689 
	C13.329205,33.056789 13.738969,33.140079 14.160160,33.561523 
z"/>
<path fill="#1B2861" opacity="1.000000" stroke="none" 
	d="
M56.229912,119.953522 
	C56.220127,119.810577 56.453064,119.570274 56.897800,119.193390 
	C56.897278,119.323265 56.684956,119.589722 56.229912,119.953522 
z"/>
<path fill="#225C92" opacity="1.000000" stroke="none" 
	d="
M52.815262,68.840919 
	C53.352905,69.197037 53.541412,69.410416 54.033714,69.968544 
	C54.560490,70.552803 54.806923,70.765694 55.074894,70.953659 
	C55.296600,71.157440 55.504669,71.374306 55.980232,71.996674 
	C56.489300,72.646111 56.717228,72.903130 56.945156,73.160149 
	C56.945156,73.160149 56.981617,73.493286 57.005783,73.657173 
	C58.751568,85.445480 43.975716,91.762451 35.289005,87.508286 
	C31.763969,85.781952 29.359241,83.316475 29.007080,79.229935 
	C28.629021,74.842842 30.227203,71.391441 34.022774,69.136139 
	C40.059883,65.548935 46.230770,65.189995 52.815262,68.840919 
z"/>
<path fill="#000509" opacity="1.000000" stroke="none" 
	d="
M48.833881,120.605423 
	C46.409847,118.653763 44.304169,116.509666 42.010155,114.173805 
	C38.387005,116.310211 34.662964,118.835579 30.011684,115.625328 
	C30.416630,114.825317 30.588526,113.911362 31.137905,113.492455 
	C35.049160,110.510132 36.019093,107.822701 31.598156,104.111015 
	C29.983114,102.755081 29.883383,99.594276 28.918779,96.743950 
	C33.721558,98.009789 37.841969,100.466660 40.869030,99.499939 
	C43.773930,98.572250 45.545277,94.095062 48.615330,90.148590 
	C49.546448,93.177246 51.009598,95.589348 50.843300,97.883316 
	C50.495239,102.684586 52.778305,104.083839 56.923347,104.211121 
	C57.844582,104.239403 58.751644,104.728981 60.775261,105.342949 
	C58.908573,107.136444 57.817673,109.015297 56.289734,109.491310 
	C52.274254,110.742302 50.352173,113.025414 50.480667,117.264130 
	C50.512047,118.299385 49.619812,119.362625 48.833881,120.605423 
M37.811443,112.941597 
	C42.917465,109.621010 49.135281,107.065651 47.344532,99.668930 
	C43.974846,101.199692 40.315979,102.861824 37.078270,104.332626 
	C40.942688,106.436295 37.594803,109.607475 36.477459,112.926682 
	C36.708942,113.014648 36.940422,113.102615 37.811443,112.941597 
z"/>
<path fill="#225C92" opacity="1.000000" stroke="none" 
	d="
M78.730118,107.532402 
	C81.827629,106.846596 84.289146,107.643227 83.455109,110.707413 
	C82.932404,112.627769 80.478111,114.146103 78.623131,115.470291 
	C78.273926,115.719566 75.689003,113.927605 75.796722,113.544067 
	C76.369080,111.506226 77.470711,109.617027 78.730118,107.532402 
z"/>
<path fill="#04417D" opacity="1.000000" stroke="none" 
	d="
M56.807533,72.941498 
	C56.717228,72.903130 56.489300,72.646111 56.122681,72.171509 
	C56.212624,72.210236 56.441265,72.466545 56.807533,72.941498 
z"/>
<path fill="#04417D" opacity="1.000000" stroke="none" 
	d="
M54.917343,70.766006 
	C54.806923,70.765694 54.560490,70.552803 54.173889,70.131119 
	C54.289188,70.124695 54.538387,70.335052 54.917343,70.766006 
z"/>
<path fill="#033567" opacity="1.000000" stroke="none" 
	d="
M36.641224,112.669968 
	C37.594803,109.607475 40.942688,106.436295 37.078270,104.332626 
	C40.315979,102.861824 43.974846,101.199692 47.344532,99.668930 
	C49.135281,107.065651 42.917465,109.621010 37.359238,112.935699 
	C36.907028,112.929802 36.641224,112.669968 36.641224,112.669968 
z"/>
<path fill="#033567" opacity="1.000000" stroke="none" 
	d="
M37.039467,113.060196 
	C36.940422,113.102615 36.708942,113.014648 36.559341,112.798325 
	C36.641224,112.669968 36.907028,112.929802 37.039467,113.060196 
z"/>
</svg>